<?xml version="1.0" encoding="utf-8"?>
<!-- Generator: Adobe Illustrator 26.5.2, SVG Export Plug-In . SVG Version: 6.00 Build 0)  -->
<svg version="1.1" id="Layer_1" xmlns="http://www.w3.org/2000/svg" xmlns:xlink="http://www.w3.org/1999/xlink" x="0px" y="0px"
	 viewBox="0 0 1366 768" style="enable-background:new 0 0 1366 768;" xml:space="preserve">
<g>
	<g>
		<path d="M613.6,169.8c0-1,0.1-1.9,0.1-2.9c-0.1-11.8-0.1-23.7-0.2-35.5c0-4.6,0.3-9.1,1.3-13.6c0.8-3.8,2-7.4,3.8-10.8
			c0.4-0.8,0.7-1.6,1-2.3c-0.6-0.7-1.3-0.5-1.9-0.5c-3.9,0-7.8,0-11.8,0c-0.6,0-1.3,0.2-1.8-0.4c0-0.7,0.7-0.9,1.2-1.3
			c5.8-3.8,11.6-7.7,17.4-11.5c0.9-0.6,1.7-1.1,2.6-1.7c-0.5-1-1.3-1-2.1-1.1c-0.8-0.1-1.7,0.1-2.5-0.4c0.7-1.6,3.2-4.1,7.9-7.9
			c2.9-2.4,6-4.5,9.3-6.4c3.3-1.9,6.8-3.6,10.4-4.9c3.5-1.3,7.2-2.2,10.9-2.9c3.7-0.7,7.5-1,11.2-0.9c3.7,0.1,7.5,0.3,11.4,0.5
			c-0.2-0.3-0.3-0.6-0.5-0.7c-0.5-0.3-1.1-0.6-1.8-1c0.4-0.4,0.7-0.6,1-0.9c0.5,0.1,1,0.2,1.4,0.4c11.5,4,23,7.9,34.4,12
			c6.4,2.3,12.1,5.7,17,10.6c5.2,5.2,8.8,11.3,10.6,18.5c0.2,0.6,0.3,1.2,0.5,1.8c0.4,1.2,1.1,2.1,2.2,2.8c0.7,0.4,1.4,0.8,2,1.3
			c4.5,3.2,7.1,7.5,7.8,12.9c0.3,2.3,0.3,4.6,0.1,6.9c-0.4,5.2-0.8,10.4-1.2,15.5c-0.4,4.9-0.8,9.7-1.2,14.6c-0.2,3-0.5,6-0.7,9.2
			c1.5,0.9,3,1.7,4.4,2.5c1,0.6,1.9,1.1,2.8,1.8c2,1.7,3,3.8,3,6.5c0,2.9-0.6,5.7-1.3,8.5c-1.7,6.7-3.5,13.5-5.3,20.2
			c-1.1,4-2.2,8-3.2,12.1c-0.4,1.8-0.6,3.6-0.8,5.4c0,0.4,0.1,0.8,0.1,1.4c0.5-0.2,0.9-0.2,1.1-0.5c0.9-0.8,1.8-1.6,2.7-2.4
			c0.3-0.3,0.7-0.6,1-0.9c0.2,0.1,0.3,0.2,0.3,0.2c0.2,3.3-0.2,6.6-1.6,9.6c-2.2,4.8-2.8,9.8-2.5,15c0.2,4.1,0.4,8.1,0.7,12.2
			c0.1,2.2,0.4,4.3,0.6,6.4c0.6,5.9,0.2,11.8-0.5,17.7c-0.8,6.7-2.2,13.2-4,19.7c-1.1,4.2-2.8,8.1-5.2,11.8c-1.4,2.1-2.9,4-4.8,5.7
			c-0.4,0.4-0.9,0.7-1.4,1.1c-0.9-1.7-0.5-3.4-0.7-5c-0.2-1.7-0.4-3.3-0.5-5c-0.6-0.2-0.7,0.2-0.9,0.6c-0.6,1.5-1.2,3-1.8,4.4
			c-7,16.1-18.1,28.5-33.3,37.3c-0.7,0.4-1.4,0.7-2.2,1.2c-1-1-1.9-1.9-3.1-3c-0.6,1.1-0.6,2.1-0.5,3.1c0,1,0.2,2.1-0.5,3.1
			c-0.4-0.3-0.8-0.5-1.1-0.9c-5.1-6.1-11.6-10.3-18.8-13.4c-3.4-1.5-7-2.8-10.4-4.3c-4.3-1.8-8.7-3.7-13-5.5c-1-0.4-2-0.9-3.4-1.2
			c1.2,1.6,2.2,2.9,3.2,4.3c-1.1,0.2-1.7-0.3-2.4-0.6c-16.1-7.2-26.7-19.2-31.1-36.4c-1.1-4.3-1.7-8.6-2-13
			c-0.2-3.3-0.6-6.5-0.8-9.8c-0.1-1.8-0.2-3.5-0.2-5.5c-0.5,0.2-0.9,0.4-1.2,0.6c-1,0.7-1.9,1.7-3.2,2.2c-0.5-1.2-0.3-2.3-0.2-3.4
			c0.9-7.7,1.8-15.4,2.7-23.1c0.4-3.3,0.1-6.5-1.1-9.7c-1-2.7-1.9-5.4-2.9-8.1c-0.8-2.3-1-4.7-0.7-7.1c0.1-0.5,0.2-1.1,0.4-1.8
			c0.4,0.4,0.7,0.6,1,0.8c1.3,1.6,2.6,3.3,3.9,4.9c0.3,0.4,0.6,0.8,1.2,0.9c0.5-0.9,0.2-1.7,0-2.6c-0.4-1.1-0.8-2.1-1.1-3.2
			c-2.6-7.3-4.4-14.8-6.2-22.4c-1.3-5.5-2.5-11.1-3.6-16.6c-0.4-1.9-0.6-3.8-0.7-5.7c-0.1-3.4,1.4-6,4.6-7.5
			C610.4,171.2,612,170.6,613.6,169.8z M678.3,233.5c-1.1-0.3-2.2,0-3.3,0.1c-0.9,0.1-1.8,0.5-3,0c1.1-1,2.2-1.3,3.2-1.9
			c0.4-0.2,1-0.2,0.9-0.9c-1.2-0.6-2.5-1.2-3.7-1.7c-2.3-1-4.5-1-6.4,1c-0.3,0.3-0.7,0.6-1.1,1c-1.1,1.2-2.5,1.9-4.1,2.3
			c-1.9,0.4-3.9,0.8-5.8,1.2c0.6,0.6,0.6,0.6,2.4,1c-0.4,0.3-0.7,0.5-1.1,0.7c-7.1,3.3-14.4,6-22.1,7.7c-0.8,0.2-1.6,0.3-2.3,0.6
			c-0.4,0.1-0.7,0.4-0.5,1c0.9,0.4,2,0.1,2.9,0c1-0.1,2.1-0.2,3.1-0.3c1.1-0.1,2.2-0.3,3.3-0.4c1-0.1,2.1-0.3,3.1-0.4
			c1-0.1,2-0.3,3.1,0.1c-0.4,0.6-0.8,1-1.3,1.7c1-0.2,1.7-0.3,2.4-0.4c0.5-0.1,0.9-0.2,1.4-0.3c5.7-1.2,11.2-3.2,16.4-5.8
			C670.1,237.8,674.2,235.6,678.3,233.5C678.3,233.5,678.3,233.5,678.3,233.5z M672.9,114.8c0.1,0.1,0.1,0.2,0.2,0.3
			c0-0.1,0-0.2,0-0.2C673.1,114.9,673,114.9,672.9,114.8c0.2-0.9-0.4-1.7-0.8-2.4c-2.5-5-5.9-9.3-10.2-12.9c-3-2.6-6.5-4.4-10.3-5.5
			c-2.7-0.8-5.5-0.9-8.3-0.2c-0.3,0.1-0.6,0.3-0.9,0.5c2.2,0.8,4.4,1.3,6.4,2.2c3.9,1.6,6.5,4.6,8,8.5c0.1,0.3,0.2,0.7,0.3,1.2
			c-1,0.2-1.9-0.1-2.7-0.2c-4.9-0.9-9.7-1.7-14.6-2.6c-0.5-0.1-1,0-1.5,0c0.4,0.6,0.9,0.9,1.5,1.2c3,1.5,6.1,2.9,9,4.4
			c4.3,2.3,8.2,5,11.6,8.5c3.2,3.3,7.2,4.9,11.3,6.4c0.1,0,0.1-0.1,0.3-0.1c0.1-1.3-0.3-2.5-0.7-3.6c-0.7-1.7-1.4-3.4-2-5.1
			c-0.3-0.7-0.7-1.5-0.1-2.5c0.8,0.4,1.4,1,2.1,1.5C671.8,114.3,672.2,115,672.9,114.8z M677.3,102.3c-0.6,0.2-1-0.3-1.5-0.5
			c-2.2-1.3-4.4-2.5-6.7-3.8c-0.3-0.2-0.6-0.6-1.1-0.1c0.1,0.2,0.1,0.5,0.2,0.7c3.3,6.1,6.6,12.2,10,18.3c1,1.7,2.3,3.3,3.6,4.8
			c2.6,3,5.9,5.1,9.8,6.3c1.2,0.4,2.5,0.6,3.9,0.1c-0.4-0.8-0.8-1.5-1.2-2.1c-2.6-4.1-5.2-8.2-7.8-12.4c-0.2-0.3-0.7-0.7-0.2-1.3
			c2.1,1.2,4.1,2.7,6.1,4.1c2.1,1.4,4.1,2.8,6.1,4.2c2.1,1.5,4.2,2.9,6.3,4.3c2,1.4,4,2.9,6.3,4.2c0-0.6,0-1,0-1.3
			c-0.5-3.9-1.1-7.8-1.6-11.6c-0.3-2-0.4-4-0.6-6c0-0.4,0-0.8,0.8-0.8c1.8,4.6,3.3,9.5,5.2,14.5c0.3-0.6,0.5-1,0.6-1.3
			c0.4-1.6,0.7-3.1,1-4.7c0.3-1.7,0.6-3.5,1-5.2c0.1-0.3,0.4-0.6,0.6-1c0.9,0.7,0.7,1.5,0.8,2.3c0.2,3.2,0.4,6.4,0.7,9.6
			c0,0.6-0.1,1.3,0.7,1.8c0.2-0.2,0.5-0.4,0.6-0.7c1.9-3.3,3.4-6.9,4.4-10.6c1.4-5.3,1.8-10.5,0.5-15.9c-0.4-1.6-1-3.2-1.8-4.7
			c-0.1-0.2-0.4-0.4-0.8-0.7c-0.2,0.5-0.3,0.8-0.3,1.1c-0.5,3.1-0.9,6.2-1.3,9.3c-0.2,1.3-0.3,2.5-1.3,3.7c-0.3-0.5-0.6-0.8-0.7-1.3
			c-0.5-1.7-0.9-3.4-1.4-5.1c-1.1-3.6-2.1-7.2-3.4-10.7c-1.4-4-3.9-7.3-7.3-9.9c-0.6-0.4-1.2-0.8-1.8-1.1c-0.2-0.1-0.5,0-1,0
			c0.5,1,0.9,1.7,1.4,2.5c1.7,3,3.4,6,4.7,9.2c1.4,3.3,2.2,6.7,2.6,10.2c0.1,0.8,0.2,1.7,0,2.5c-0.7,0-0.9-0.5-1.1-0.9
			c-1.1-1.8-2.1-3.6-3.2-5.3c-1.7-2.6-3.3-5.3-5.1-7.8c-3.7-5.1-8.2-9.3-13.9-12.2c-4.8-2.4-9.9-3.7-15.2-3.8c-0.7,0-0.7,0-1.8,0.6
			c1.4,0.7,2.6,1.3,3.9,2c3.4,1.7,6.7,3.4,9.7,5.7c3.4,2.5,6.3,5.4,8.4,9.1c0.5,0.8,0.8,1.7,1.2,2.6c0.1,0.2,0,0.6-0.1,1.4
			c-3-3.4-5.9-6.2-9.2-8.6c-3.4-2.5-7-4.5-10.9-5.9c-3.8-1.4-7.8-2.4-11.9-2.8c-7.7-0.7-9.7-0.7-12.5,0.3c0.8,0.2,1.4,0.5,2,0.6
			c2.6,0.7,5.3,1.2,7.9,2c7.5,2.1,14.6,5.1,21.1,9.6c3.2,2.2,6.2,4.8,8.7,7.8c2.7,3.3,4.7,6.8,5.8,10.9c0.1,0.3,0.3,0.8-0.4,1.1
			c-1.1-0.9-2.2-1.7-3.3-2.7c-1.7-1.5-3.4-3.1-5.2-4.7c-4.3-3.8-8.7-7.3-13.5-10.3c-3.8-2.4-7.8-4.4-12.1-5.8
			c-3.8-1.2-7.6-1.9-11.6-1.7c-2,0.1-4,0.4-5.8,1.2c-0.3,0.1-0.8,0.2-0.6,0.9c0.6,0.1,1.2,0.2,1.8,0.3c3.9,0.4,7.8,0.9,11.6,1.8
			c3.9,1,7.6,2.3,11.1,4.3c2.9,1.7,5.3,3.8,7.2,6.6C676.8,100.2,677.6,101.1,677.3,102.3L677.3,102.3z M668.1,313.6
			c1-0.2,1.6,0.6,2.3,1.1c2.5,2,5,4,7.5,6c1.6,1.3,3.2,2.6,4.8,4c0.7,0.6,1.4,1.1,2.7,1.1c-0.7-0.8-1.2-1.4-1.7-2
			c-4.4-5-8.8-9.9-13.2-14.9c-0.7-0.8-1.4-1.6-2.1-2.3c-0.3-0.3-0.4-0.7,0.1-1c0.2,0.1,0.4,0.1,0.7,0.2c12.5,6,23.8,13.8,32.5,24.8
			c0.3,0.4,0.7,0.8,1.2,1.2c0.3,0.2,0.6,0.6,1.1,0.1c-0.5-0.9-0.9-1.8-1.4-2.7c-0.9-1.6-1.9-3.1-2.9-4.7c-3.2-5-6.4-10-9.6-15
			c-0.1-0.2-0.1-0.4-0.2-0.7c0.2-0.1,0.4-0.2,0.7-0.4c1.4,1.5,2.9,3,4.3,4.5c3.6,3.9,7.2,7.8,10.7,11.6c0.3,0.4,0.6,1,1.4,0.7
			c0.2-0.6,0.4-1.2,0.5-1.8c0.9-5.2,3.2-9.8,6.6-13.9c2.2-2.6,4.3-5.2,6.4-7.8c2.8-3.4,5.3-7,6.7-11.3c0.1-0.4,0.4-0.7,0.5-0.9
			c0.9-0.2,1.5,0,2,0.8c-0.1,0.5-0.2,1-0.4,1.6c-1.4,4.6-2.8,9.2-4.3,13.7c-1.9,6.2-3.9,12.4-5.8,18.5c-0.1,0.5-0.5,1,0.1,1.6
			c0.3-0.3,0.5-0.6,0.7-1c3.4-4.7,6-9.8,8-15.2c3.1-8.2,5-16.7,5.8-25.4c0.4-3.9,0.5-7.8-0.1-11.7c-0.4-2.4-0.9-4.7-1.4-7
			c-0.3-1.1-0.8-2.3-1.7-3.1c-1.3,1-2.3,2.3-3.1,3.7c-1.4,2.3-2.3,4.7-2.8,7.3c-0.6,3-1.3,5.9-1.9,8.9c-0.6,2.9-1.3,5.8-2,8.6
			c-0.1,0.6-0.2,0.6-1.1,1.5c-0.1-0.3-0.3-0.6-0.4-0.9c-0.3-2.6-0.7-5.2-1-7.8c-0.1-1.4-0.2-2.7-0.8-4c-0.1-0.3-0.5-0.5-0.8-0.9
			c-0.5,1.1-0.9,2-1.2,2.9c-0.4,1-0.7,2-1,3c-0.3,0.9-0.6,1.8-0.8,2.8c-0.3,1-0.6,2-0.9,3c-0.3,0.9-0.4,1.8-1.1,2.7
			c-1-0.7-1.5-1.7-2-2.5c-2.7-4.4-5.5-8.8-8.2-13.3c-0.3-0.4-0.5-0.9-0.8-1.1c-0.3-0.2-0.8-0.3-1.2-0.4c-0.3,1.4-0.3,1.4,0.2,2.6
			c2.7,6.9,4.1,13.9,3.4,21.3c0,0.4-0.1,0.7-0.2,1.4c-0.4-0.4-0.7-0.6-0.8-0.9c-0.6-1-1.1-1.9-1.6-2.9c-2.1-4-5-7.4-8.4-10.4
			c-1.6-1.3-3.2-2.6-4.9-3.9c-4.7-3.6-9.5-7.1-14.2-10.6c-1.1-0.8-2.2-1.6-3.3-2.4c-0.3-0.2-0.7-0.3-1.3-0.5
			c0.2,1.2,0.2,2.2,0.4,3.1c0.7,3.2,2,6.1,3.8,8.8c1.5,2.2,3.1,4.2,5,6.1c3.9,3.8,7.8,7.6,11.6,11.4c1.4,1.4,2.6,3,3.9,4.5
			c0.3,0.3,0.5,0.6,0.1,1.2c-0.5-0.2-1.1-0.3-1.7-0.5c-2.4-1-4.7-2-7.1-2.9c-7.3-2.7-14.7-5.4-22.1-8c-7.2-2.6-13.4-6.7-18-12.9
			c-0.3-0.4-0.6-0.6-0.9-0.9c-0.2,0.2-0.3,0.2-0.3,0.2c0,0.4-0.1,0.8-0.1,1.2c0.1,3.8,0.8,7.5,1.8,11.1c1.4,4.9,3.6,9.4,6.5,13.5
			c1.8,2.5,3.7,5,5.5,7.6c0.2,0.3,0.6,0.6,0.2,1.1c-1.7-1-3.2-2.2-4.5-3.5c-5.6-5.5-9.6-12-11.8-19.5c-1.3-4.3-2.3-8.6-3.4-13
			c-0.2-0.7-0.4-1.5-0.6-2.2c-0.3,1.5-0.4,2.9-0.4,4.3c-0.1,1.9-0.2,3.8-0.3,5.7c0,0.4,0,0.8-0.7,0.9c-0.3-0.6-0.7-1.3-1.1-2
			c-1.3-3.1-2.7-6.2-4-9.2c-1.8-4.2-3.5-8.4-5.2-12.6c-0.2-0.5-0.5-0.9-0.9-1.7c-0.3,0.8-0.5,1.2-0.6,1.6c-0.4,2.5-0.8,5.1-1,7.6
			c-0.7,8-0.6,16,1.1,23.9c0.4,1.6,0.7,3.3,1.1,4.9c0.2,0.9,0.4,1.8,1.5,2.5c0.4-1.2,0.2-2.2,0.2-3.2c0-1,0-2.1,0-3.1
			c0-1.1,0-2.2,0-3.4c0-1-0.1-2,0.2-3.1c0.8,0.3,1,0.9,1.3,1.5c0.7,1.6,1.3,3.3,2,4.9c2.3,5.7,4.5,11.5,6.9,17.1
			c3.3,7.7,9.2,12.9,16.5,16.7c1.4,0.7,2.9,1.3,4.7,1.3c-0.6-1-1.4-1.5-2.1-2.1c-4.3-3.3-7.7-7.4-10.7-11.9
			c-1.4-2.2-2.4-4.5-2.9-7.1c-0.1-0.4-0.3-0.9,0.4-1.3c0.3,0.6,0.6,1.1,1,1.7c0.9,1.5,1.7,3.1,2.8,4.5c3.4,4.7,8,8,13.3,10.4
			c6.6,2.9,13.5,4.3,20.6,5.3c0.3,0,0.7-0.1,1.2-0.1c-0.2-1-0.9-1.5-1.4-2.1c-2.9-3.2-5.8-6.4-8.7-9.6c-1-1.1-1.8-2.2-2.7-3.4
			C668.3,314.3,668.3,313.9,668.1,313.6L668.1,313.6z M734.9,116.5c-0.5,0.9-0.8,1.2-1,1.7c-0.4,1-0.8,2.1-1.3,3.1
			c-2.5,5.3-6.6,8.8-12.4,10c-1.9,0.4-3.8,0.7-5.7,0.7c-7.7,0.3-15.4-0.1-23-1c-6.8-0.8-13.6-2.1-20.3-3.5c-5.5-1.2-11-1.8-16.7-1.2
			c-4.5,0.5-8.8,1.7-12.7,4c-3.6,2.1-6.6,4.8-8.9,8.3c-1.8,2.8-2.7,5.8-2.2,9.1c0.9,5.3-0.3,10.2-2.5,14.9c-0.2,0.5-0.6,0.9-0.9,1.4
			c-0.8,0.1-1.5,0.2-2.2,0.3c-2,0.4-3.9,0.7-5.7,1.8c-1,0.6-1.7,1.4-2.1,2.5c-0.8,2.2-0.8,4.4-0.6,6.6c0.2,1.8,0.2,3.7,1.6,5.2
			c0.3,0.3,0.4,0.9,0.5,1.3c0.5,2.4,1.5,4.5,2.5,6.7c0.5,1.1,0.8,2.3,1,3.4c0.4,2.4,0.6,4.8,1.1,7.1c0.9,5.3,2.2,10.5,4.3,15.4
			c3.1,7.6,7.7,14.1,14.3,19.2c0.4,0.3,0.7,0.6,1.1,0.9c-0.4,0.5-0.7,1-1,1.5c2,0,8.8-3.1,9.5-4.2c-0.1-0.3-0.2-0.5-0.2-0.8
			c0.1-0.1,0.2-0.3,0.4-0.3c4-1.4,7.6-3.3,11.3-5.3c1.6-0.9,3.3-1.7,5-2.4c2.9-1.2,5.8-1.2,8.6,0.1c1.7,0.8,3.2,1.8,4.8,2.7
			c0.9,0.6,1.8,1.3,2.8,1.9c0.6-0.7,1-1.2,1.5-1.7c0.7-0.8,1.3-1.6,2.1-2.3c2-1.9,4.4-2.7,7.1-2c1.6,0.4,3.2,1,4.7,1.7
			c3.7,1.7,7.3,3.5,10.9,5.5c3,1.6,6,3,9.3,3.7c0.3,0.1,0.5,0.3,0.7,0.5c-0.3,0.3-0.6,0.5-0.8,0.7c4.2,2.1,8.7,3.4,10.8,3.2
			c-1-1-2.7-1-3.4-2.6c0.4-0.4,0.7-0.7,1.1-1.1c4.6-4.3,8.2-9.4,10.8-15.2c3.6-7.9,5.7-16.3,6.5-24.9c0.1-1,0.1-1.9,0.4-2.8
			c1-3,1.7-6.1,2.2-9.4c0.5-0.4,1.1-0.9,1.4-1.1c1.5-3.5,1.6-8.4,0.4-11.4c-0.6-1.5-1.3-2.5-2.9-2.9c-0.9-0.2-1.7-0.5-2.6-0.8
			c-1.2-1.9-2.9-3.1-4.8-4c-2-2.7-2.6-4.4-2.5-7.4c0-0.6,0.1-1.1,0.1-1.7c0.3-5.9-1.3-11-5.2-15.5c-0.6-0.6-1-1.4-1.5-2
			c0.2-0.5,0.3-0.9,0.4-1.3c1.4-4.4,2.7-8.9,4.1-13.3c0.2-0.5,0.3-1.1,0.4-1.6C735.4,117.6,735.2,117.3,734.9,116.5z M721.2,244.8
			c0.1-0.2,0.1-0.3,0.2-0.5c1.6,0.2,3.1,0.4,4.7,0.6c1.5,0.2,3,0.4,4.5,0.5c2.8,0.1,3.2,0.1,4.7-0.6c-0.4-0.2-0.6-0.3-0.9-0.4
			c-1.6-0.3-3.3-0.6-4.9-1c-6.4-1.6-12.3-4.3-18.1-7.4c-0.1,0-0.1-0.1-0.1-0.2c0.1-0.3,0.1-0.6,0.2-0.8c-3.4-1.3-6.8-2.5-9.6-4.9
			c-0.5-0.5-1.2-0.8-1.8-1.1c-1.3-0.7-2.7-1.4-4.3-1.5c-2.1-0.2-3.8,0.4-5,2.1c-0.4,0.6-1,1.1-1.5,1.8c0.8,0.3,1.6,0.7,2.5,1
			c0.9,0.3,1.8,0.7,2.7,1.1c0.2,0.1,0.3,0.4,0.6,0.8c-2.8,0.4-5.4,0-8.5,0.3c1.1,0.5,1.8,0.9,2.5,1.1c10.9,3.7,21.7,7.4,32.6,11.2
			c0.4,0.1,0.8,0.3,1.1,0.4c0.4,0.1,0.8,0,0.9-0.6C722.8,246,722,245.4,721.2,244.8z M746.7,295.1c0.1-0.6,0.2-0.9,0.2-1.3
			c0.4-3.3,0.3-6.5-0.1-9.8c-0.9-8.1-4-15.2-9.5-21.3c-0.2-0.3-0.6-0.4-0.9-0.7c-0.6,1.3-0.7,2.4-0.3,3.6c0.8,2.7,1.5,5.6,2.5,8.3
			C741.2,280.9,743.9,287.8,746.7,295.1z M666.6,290.5c0-0.1,0.1-0.2,0.1-0.3c-0.5-0.3-0.9-0.6-1.4-1c-3.5-2.4-6.7-5.2-9.6-8.3
			c-3.3-3.5-6.1-7.4-8.6-11.5c-0.3-0.4-0.3-1.1-1.2-1.1c-0.5,3.5,0.3,6.7,2,9.6c1.5,2.5,3.5,4.6,5.7,6.4c3.4,2.7,7.2,4.4,11.2,5.7
			C665.6,290.2,666.1,290.4,666.6,290.5z M750.3,207.6c1.2-0.8,1.6-1.6,2-2.5c1.6-3.8,3.2-7.6,4.8-11.5c0.3-0.7,0.6-1.5,0.1-2.5
			c-1.4,1.8-2.1,3.7-3.6,5.5c-0.2-0.9-0.4-1.4-0.5-2.1c-0.1-1.8-0.4-3.5-1-5.1c-1.1-2.9-0.6-5.3,1.9-7.2c0.3-0.2,0.5-0.6,0.9-1.2
			c-0.8,0-1.3,0-1.7,0.1c-2,0.4-2.9,1.4-3.1,3.4c-0.1,0.6-0.1,1.1-0.1,1.7c0,6.2-0.1,12.4-0.1,18.7
			C749.9,205.7,750.1,206.4,750.3,207.6z M622.7,245.6c0,0.2,0,0.3,0,0.4c0.1,0.2,0.2,0.4,0.4,0.6c1.6,1.8,3.6,2.9,5.8,3.6
			c3.3,0.9,6.7,1.4,10.2,1.2c6.8-0.2,13.2-2.3,19.2-5.5c0.2-0.1,0.6-0.2,0.3-0.7c-0.7,0.2-1.5,0.4-2.3,0.5c-4.5,1.1-9,2.3-13.6,2.8
			c-4.7,0.6-9.4,0.6-14-0.8C626.7,247.2,624.8,246.4,622.7,245.6z M617.2,206.4c0.1-1.1,0.3-1.9,0.3-2.7c0.4-5.9,0.4-11.8,0.1-17.7
			c-0.1-2.8-1.6-4.3-4.9-5.1c0.5,0.5,0.8,0.8,1.2,1.1c2.5,1.7,2.9,4,2.1,6.7c-0.5,1.8-1.2,3.6-1.8,5.5c-0.1,0.4-0.4,0.7-0.6,1.1
			c-1.4-0.8-1.3-2.8-2.8-3.5C611.2,195,614.7,203.3,617.2,206.4z M680.7,267.3c0,0.5-0.1,0.9,0,1.2c0.2,1.1,0.9,1.9,1.5,2.7
			c3.9,5,8.9,8.7,13.9,12.3c0.2,0.1,0.4,0.1,0.7,0.2c0-1.3-0.5-2.3-1.1-3.2c-0.9-1.3-1.8-2.7-2.7-3.9c-3-4-6.8-6.9-11.3-9
			C681.4,267.4,681.1,267.4,680.7,267.3z M732.8,104.4c-2.8,3.9-8.2,17.6-8.3,21c3.8-2.6,6.1-6,7.6-10
			C733.5,111.9,734.1,108.4,732.8,104.4z M710,245.5c0,0.1-0.1,0.2-0.1,0.2c0.5,0.3,0.9,0.6,1.4,0.8c7.2,3.7,14.9,5.2,23,4.6
			c2.6-0.2,5-0.9,7.3-2.1c1.3-0.7,2.5-1.4,3.3-3.1c-0.7,0.2-1,0.3-1.4,0.5c-6.3,2.5-12.9,2.9-19.6,2.1c-3.9-0.5-7.7-1.4-11.5-2.4
			C711.7,245.8,710.8,245.7,710,245.5z"/>
		<path d="M408.9,283.8c-1-3.1-0.8-6,0.5-8.6c2.4-4.8,5.6-9,10.1-11.9c1.4-0.9,3-1.6,4.5-2.2c1.8-0.7,3.6-0.7,5.4,0.1
			c2.3,1,4.7,2,7,3.1c9.1,4.2,18.2,8.5,27.4,12.7c22.2,10.1,44.4,20.2,66.6,30.3c27.4,12.5,54.9,25,82.3,37.4
			c22.2,10.1,44.4,20.2,66.6,30.3c0.8,0.4,1.6,0.8,2.5,1.2c-0.2,0.5-0.3,1-0.6,1.3c-1.6,2.5-3.3,4.9-5,7.4c-3,4.5-5.9,9.1-8.9,13.7
			c-1.5,2.2-3,4.3-4.5,6.5c-1,1.4-2.3,2.4-3.9,3.1c-2,1-3.9,1.1-5.9,0c-5.4-2.8-10.8-5.5-16.2-8.3c-30.1-15.3-60.3-30.7-90.4-46
			c-20.2-10.3-40.5-20.6-60.7-30.9c-24.6-12.6-49.3-25.1-73.9-37.6C410.8,284.8,409.8,284.3,408.9,283.8z M649.5,382.4
			c-1-0.8-2.1-0.7-3.2-0.3c-3.9,1.4-7.4,7.2-7.4,10.2c0,0.5,0,1,0.1,1.4c0.4,1.7,1.8,2.5,3.4,1.9c0.6-0.2,1.2-0.6,1.6-1
			c2.7-2.2,4.6-5,5.9-8.3C650.4,385.1,650.4,383.8,649.5,382.4z M629.5,390.2c1.1,0.3,2,0,2.9-0.5c3.4-2,5.6-4.9,6.7-8.6
			c0.2-0.8,0.3-1.7,0.2-2.6c-0.1-1.6-1.3-2.4-2.8-2c-1,0.2-1.8,0.7-2.5,1.4c-1.8,1.7-3.3,3.6-4.5,5.8c-0.7,1.3-1.2,2.8-1.2,4.3
			C628.2,388.9,628.5,389.7,629.5,390.2z M593.4,354.6c-1.8-0.3-2.1-0.3-3.5,0.5c-2.9,1.9-5.1,4.4-6.3,7.6c-0.3,0.7-0.5,1.4-0.5,2.1
			c-0.1,1.2,0.1,2.2,1.1,2.9c1.1,0.4,2,0.1,2.8-0.3c1.3-0.7,2.3-1.7,3.2-2.8c1.6-1.9,2.9-4,3.6-6.4
			C594.3,356.9,594.5,355.6,593.4,354.6z M604.4,359.3c-1-0.3-1.8-0.2-2.6,0.3c-0.5,0.4-1.1,0.7-1.5,1.1c-2.5,2.4-4.5,5.2-5.7,8.5
			c-0.2,0.5-0.3,1.1-0.4,1.6c-0.1,0.8,0.1,1.6,0.9,2.1c1.9,0.2,2.5,0.2,3.6-0.6c3.4-2.6,5.4-6,6.6-10
			C605.6,361.2,605.5,360.1,604.4,359.3z M618.5,384.1c4.3-1.2,8.2-5.3,9.1-9.3c0.1-0.3,0.1-0.6,0.1-0.9c0.1-2-1.6-3.3-3.5-2.7
			c-0.7,0.2-1.5,0.7-2,1.2c-2.2,1.8-3.8,4.1-4.9,6.7c-0.5,1-0.7,2.1-0.6,3.3c0,0.2,0.1,0.5,0.3,0.8
			C617.4,383.4,617.9,383.7,618.5,384.1z M616.3,368.4c0-2.6-1.5-3.5-3.4-2.7c-0.4,0.2-0.7,0.3-1,0.6c-2.9,2.3-5.1,5-6.2,8.6
			c-0.2,0.6-0.3,1.3-0.3,1.9c0.1,1.4,1.4,2.3,2.7,1.9c1-0.3,1.9-0.9,2.7-1.5c2.1-1.8,3.7-4,4.9-6.4
			C616,369.8,616.2,368.9,616.3,368.4z M559.5,339.4c-0.4,0.2-1.2,0.4-1.8,0.8c-2.5,1.9-4.5,4.3-5.9,7.1c-0.3,0.6-0.5,1.4-0.5,2.1
			c-0.1,1.7,1.5,2.8,3.1,2.3c0.5-0.2,1-0.4,1.5-0.8c2.4-1.8,4.4-4,5.7-6.6c0.4-0.8,0.6-1.7,0.7-2.5
			C562.4,340.3,561.3,339.3,559.5,339.4z M572.8,361.6c1,1.1,2.1,1.1,3.3,0.6c0.6-0.2,1.1-0.6,1.6-1c1.8-1.6,3.4-3.4,4.4-5.6
			c0.4-0.8,0.6-1.6,0.8-2.5c0.1-0.7,0-1.5-0.2-2.1c-0.5-1.4-1.8-1.8-3.1-1c-0.3,0.2-0.6,0.5-0.9,0.8c-2.2,2.2-3.9,4.6-5.5,7.2
			C572.5,359,572.3,360.2,572.8,361.6z M562.3,355.9c1.2,0.8,1.3,0.9,1.7,0.8c0.5-0.1,1-0.1,1.4-0.4c2.9-1.9,5.3-4.4,6.7-7.6
			c0.3-0.6,0.4-1.4,0.4-2.1c0-1.7-1.4-2.6-3-2.1c-0.7,0.2-1.3,0.6-1.8,1.1c-2.1,1.8-3.7,4-4.9,6.4
			C562.2,353.2,561.8,354.4,562.3,355.9z M551.3,335.3c-1.5-1.1-2.4-1.2-3.8-0.1c-2.7,2.1-4.7,4.7-6.1,7.8c-0.4,1-0.6,2,0,2.9
			c0.8,0.7,1.6,0.7,2.7,0.5c2.8-1.8,5-4.2,6.8-7.1C551.4,338.2,551.9,336.8,551.3,335.3z M523.1,336.9c1.4-0.2,2.5-0.9,3.6-1.7
			c1.9-1.6,3.3-3.5,4.3-5.6c0.3-0.6,0.4-1.2,0.6-1.8c0.2-0.7,0.1-1.4-0.3-2.1c-0.4-0.6-0.9-0.9-1.6-0.9c-1.1,0.2-2,0.9-2.8,1.6
			c-1.7,1.6-3.1,3.4-4.3,5.4c-0.4,0.7-0.8,1.6-1,2.4c-0.1,0.5,0,1.1,0.1,1.6C521.8,336.4,522.4,336.8,523.1,336.9z M504.4,327.5
			c3.5-1.8,5.7-4.4,7.2-7.7c0.6-1.3,0.7-2.6-0.6-3.7c-1.2-0.5-2.4-0.3-3.4,0.5c-2.5,2.1-4.4,4.6-5.3,7.8c-0.2,0.9-0.2,1.7,0.6,2.6
			C503.2,327.2,503.8,327.3,504.4,327.5z M532.1,341.1c1.3,0.9,2.4,0.5,3.3-0.3c2.3-2,4.2-4.3,5.6-7c0.2-0.4,0.3-0.9,0.5-1.3
			c0.3-0.9,0.1-1.7-0.7-2.4c-1.5-0.6-2.8,0-3.9,0.9c-2.4,2-4,4.5-5.2,7.3C531.3,339.2,531.4,340.1,532.1,341.1z M513.5,332.2
			c0.5-0.1,0.7-0.2,0.9-0.3c3.7-1.9,5.6-5.3,7.1-9c0.4-1,0.1-2.1-1.1-2.6c-1.3-0.4-2.4,0.2-3.3,1.1c-2,1.9-3.6,4-4.8,6.5
			c-0.5,1.1-0.8,2.3-0.1,3.6C512.7,331.7,513.1,332,513.5,332.2z M492.1,307c-1.4-0.4-2.5,0.1-3.4,0.9c-2,1.8-3.5,3.9-4.6,6.4
			c-0.4,1-0.5,2,0,3.2c0.4,0.2,0.9,0.5,1.4,0.8c0.4-0.1,0.6-0.2,0.9-0.3c0.3-0.1,0.6-0.3,0.8-0.5c2.3-1.9,4.3-4.1,5.6-6.8
			c0.2-0.4,0.3-0.8,0.4-1.1C493.3,308.6,493.1,307.7,492.1,307z M501.9,312.6c-0.6-1-1.5-1.1-2.5-0.8c-0.7,0.3-1.4,0.7-2,1.2
			c-1.5,1.3-2.7,2.9-3.7,4.6c-0.2,0.4-0.4,0.9-0.6,1.3c-0.3,1-0.5,2.1,0.5,2.9c0.7,0.6,1.6,0.5,2.8-0.4c2.4-1.7,4-4,5.4-6.6
			C502.1,314.2,502.1,313.4,501.9,312.6z M455.3,290.1c-0.4,0.2-0.9,0.3-1.2,0.5c-2.4,1.9-4.1,4.2-5.3,7c-0.3,0.8-0.3,1.6,0.3,2.4
			c0.3,0.1,0.6,0.3,0.9,0.4c0.3-0.1,0.5-0.1,0.8-0.2c0.3-0.1,0.6-0.2,0.9-0.4c2.3-1.4,4-3.4,5.1-5.9c0.1-0.3,0.2-0.6,0.3-0.9
			C457.5,291.6,457.1,291,455.3,290.1z M475.4,313c1.4,0.8,2,0.8,3-0.2c2-1.9,3.6-4.2,4.8-6.8c0.2-0.5,0.3-1.1,0.3-1.6
			c0-0.2-0.1-0.4-0.2-0.8c-0.4-0.2-0.9-0.5-1.4-0.7c-2.8,0.9-4.2,3.1-5.5,5.4C475.5,309.8,474.7,311.3,475.4,313z M467.6,309.2
			c0.5-0.3,1.1-0.5,1.5-0.8c2.1-1.5,3.7-3.5,4.9-5.8c0.2-0.3,0.4-0.7,0.4-1.1c0-0.6,0.1-1.3-0.1-1.8c-0.2-0.6-0.8-0.9-1.8-0.9
			c-0.3,0.2-1,0.4-1.4,0.8c-1.9,1.7-3.6,3.6-4.6,6c-0.3,0.7-0.3,1.5-0.4,2.3c0,0.2,0.2,0.4,0.3,0.7
			C466.7,308.8,467.1,309,467.6,309.2z M447.7,286.9c-1.2-0.5-2.2-0.2-3,0.7c-1.5,1.4-2.8,3.1-3.6,5c-0.5,1-0.7,2.1-0.2,3.2
			c1.3,0.8,1.5,0.9,2.6,0.2c2.7-1.6,4.2-4,5-6.9C448.7,288.1,448.4,287.4,447.7,286.9z M458.3,304.5c0.8-0.3,1.3-0.3,1.6-0.6
			c2.3-1.7,4.2-3.7,5.3-6.3c0.3-0.8,0.4-1.5-0.1-2.5c-0.3-0.2-0.8-0.5-1.2-0.6c-1.2,0.1-2,0.6-2.6,1.3c-1.2,1.5-2.4,3-3.5,4.5
			c-0.3,0.4-0.5,1-0.7,1.5c-0.1,0.4-0.2,1,0,1.4C457.4,303.7,457.9,304,458.3,304.5z M438.7,282.9c-1.2-0.5-2.2-0.1-3.1,0.7
			c-1.5,1.4-2.6,3-3.3,4.9c-0.2,0.4-0.3,0.9-0.3,1.4c-0.1,1.2,0.3,2,1.7,2.3c0.2-0.1,0.6-0.1,0.8-0.2c1.7-0.9,4.7-4.9,5-6.8
			C439.7,284.4,439.6,283.7,438.7,282.9z M430.5,279.1c-1.4-0.4-2.3,0.1-3.1,0.9c-1.2,1.2-2.1,2.6-2.8,4.1c-0.2,0.4-0.3,0.9-0.4,1.4
			c-0.1,0.7,0.1,1.4,0.8,1.9c0.6,0.4,1.2,0.3,1.8-0.1c2.1-1.3,3.7-3,4.5-5.4C431.6,280.9,431.6,279.9,430.5,279.1z M422.1,275.8
			c-1-0.5-1.8-0.2-2.5,0.4c-1.4,1-2.4,2.4-3.1,3.9c-0.2,0.5-0.3,1.1-0.4,1.6c-0.1,0.9,0.4,1.6,1.1,1.9c0.8,0.3,1.5,0.1,2-0.5
			c1.1-1.5,2.2-3.1,3.2-4.7C422.9,277.6,422.9,276.7,422.1,275.8z"/>
		<path d="M442.6,477.6c1.3,0.2,2.3,0.4,3.2,0.6c8.3,1.5,15.2,5.3,20.1,12.3c2.7,3.8,4.5,8,5.5,12.4c3.3,14.6,0.7,28.1-8.2,40.2
			c-3.8,5.1-8.6,9.2-14.1,12.5c-7.4,4.4-15.4,7.4-24,8.6c-4.9,0.7-9.8,1.5-14.7,2.2c-5.6,0.8-10.9,2.4-16.1,4.7
			c-3.4,1.5-6.8,2.8-10.4,3.7c-2.4,0.6-4.8,0.7-7.1,0.3c-1.2-0.2-2.3-0.8-3.4-1.2c-0.2-0.1-0.4-0.4-0.8-0.8c0.6-0.1,1-0.2,1.3-0.3
			c4.7-0.6,7.9-3.2,9.8-7.5c1.2-2.6,1.9-5.4,2.1-8.3c0.1-1.2,0.1-2.4,0.1-3.6c-0.1-7.8-0.2-15.7-0.3-23.5c-0.1-8-0.1-16-0.3-24
			c-0.1-6.4-1.1-12.6-3.3-18.6c-0.2-0.6-0.5-1.2-0.7-1.8c-1.8-4.2-3.1-5.7-6.9-8.1c1.3-1.8,2.9-2.9,5.1-3.2c1.9-0.2,2.8,0.1,5.6,2.1
			c0-0.5,0.1-0.8,0.1-1.2c0-10.2,0-20.5,0-30.7c0-2.7-0.2-5.4-0.9-8.1c-0.4-1.5-0.9-2.9-1.5-4.3c-1.7-3.3-4.4-5-8.1-4.8
			c-0.9,0-1.7,0.1-2.6,0.2c-0.3-0.5,0.1-0.7,0.4-0.9c4.4-4.3,9.8-5.5,15.7-4.9c1.7,0.2,3.5,0.6,5.2,1c1.3,0.3,2.7,0.5,4,0.8
			c2.6,0.5,5.1,0.2,7.6-0.1c5.2-0.5,10.3-1.1,15.5-1.6c5.6-0.5,11.2-0.4,16.8,0.3c4.7,0.6,9.3,1.7,13.6,3.8
			c8.7,4.2,13.2,11.3,13.8,20.9c0.6,8.4-2.7,15.3-8.3,21.3c-3.3,3.5-7.1,6.1-11.4,8.3C444.3,476.7,443.6,477,442.6,477.6z
			 M408,491.1c0,1,0,1.9,0,2.7c0.1,13.3,0.3,26.7,0.4,40c0.1,5.2,0.2,10.4,0.3,15.6c0,0.6,0.1,1.2,0.2,1.9c0.7,0.1,1.2,0.2,1.7,0.2
			c5.1,0.3,10.1-0.2,15-1.1c5.5-1.1,10.2-3.8,14-7.8c3.5-3.7,5.4-8.3,6.5-13.1c1.2-5.2,1.3-10.5,0.8-15.7c-0.4-4.2-1.3-8.2-3.1-12
			c-3-6.4-8.1-10.4-14.9-12.1c-4.6-1.1-9.2-1-13.8-0.3C413,489.8,410.6,490.2,408,491.1z M408.3,478c1.2-0.1,2.2-0.2,3.2-0.4
			c1.5-0.3,3-0.6,4.5-0.9c6.2-1.5,11.7-4.3,16.1-9c5.1-5.3,7.7-11.5,7.5-18.8c-0.1-4.1-1.5-7.7-4.6-10.4c-2.3-2.1-4.9-3.6-7.9-4.4
			c-4.2-1.2-8.5-1.5-12.8-0.9c-2.2,0.3-4.4,0.9-6.1,2.3C407.8,439.3,407.9,475.8,408.3,478z"/>
		<path d="M643.7,739.9c-0.4-0.8-0.7-1.6-1.1-2.4c-0.9,0.5-1.6,1-2.5,1.6c-1.6-0.3-3.3-0.5-5-0.8c-36.7-7-69.9-21.8-99.8-44.1
			c-25.8-19.2-47.2-42.6-63.6-70.4c-6-10.2-11.2-20.8-15.4-31.9c-0.3-0.7-0.6-1.5-0.8-2.3c-0.1-0.2-0.1-0.5-0.2-0.8
			c1.9-1,4.1-1.2,6.2-1.7c2-0.5,4-1,6-1.5c1.2,0.9,1.6,2.2,2.1,3.3c2.4,5.9,5.1,11.7,8,17.4c5.5,10.7,11.9,20.8,19,30.5
			c0.9,1.2,1.7,2.5,2.6,3.7c0.9,1.2,1.8,2.5,2.8,3.6c5.8,6.4,11.5,12.9,17.6,19c9.2,9.1,19.1,17.3,29.7,24.7c1.3,0.9,2.5,2,3.7,3
			c0.8,0.8,1.7,1.4,2.8,1.9c2.3,1.2,4.7,2.4,7,3.7c15.9,9.5,32.7,17.1,50.4,22.6c1.1,0.3,2.1,0.7,3,1c1.4,2.5,2.7,4.8,3.9,7
			c0,0,0.1,0,0.4,0c0.5-0.8,0.2-1.8,0.1-2.7c0-0.9-0.1-1.7-0.2-2.4c0.6-0.6,1-0.3,1.5-0.2c4.8,1.1,9.7,2.2,14.5,3.2
			c6.7,1.4,13.5,2.4,20.4,3.2c12,1.4,24.1,1.7,36.2,1.3c5.7-0.2,11.3-0.7,17-1.2c11.9-1.1,23.6-3.3,35.1-6.4
			c15.6-4.2,30.6-9.7,45-17.1c5-2.5,10-5,14.7-8c2.2-1.5,4.7-2.4,7.2-3.2c1.1-1.7,2.6-2.8,4.2-3.9c12.7-8.6,24.6-18.1,35.2-29.3
			c13.6-14.3,25.8-29.7,35.5-47c4.3-7.7,8.1-15.6,11.5-23.7c0.6-1.4,1.1-2.8,2.1-4.2c4.3,0.9,8.5,1.9,12.7,3c0.4,1-0.2,1.7-0.5,2.4
			c-6.3,15.4-13.9,30-23.1,43.9c-18.2,27.5-41.4,49.9-69,67.8c-21.1,13.7-43.7,24.2-68,31.1c-10.2,2.9-20.5,5.1-30.9,6.6
			c-8.7,1.2-17.5,2-26.3,2.4c-8.7,0.4-17.4,0.2-26.1-0.2c-8.1-0.4-16.3-1.3-24.3-2.4C644.3,740.1,644,740,643.7,739.9z M779.5,712.9
			c-0.8,0.3-1.5,0.6-2.1,0.9c-0.1,0.1-0.2,0.2-0.3,0.3c1.2,3.3,3.1,4.5,5.8,3.5C782,716,780.8,714.5,779.5,712.9z M668.9,739.9
			c0,0.2-0.1,0.3-0.1,0.5c0.6,0.1,1.1,0.3,1.7,0.4c0-0.1,0-0.2,0.1-0.3C670.1,740.2,669.5,740,668.9,739.9z"/>
		<path d="M806.3,294.1c0.9,2.7-1.3,4.1-2,6.3c0,1.7,0.9,3.1,2.5,4.1c1.1,0.7,2.2,1.4,3.4,2.1c-1.8,2.1-3.5,4-5.1,6
			c-1.6,2-3.1,4.1-4.6,6.1c-0.5-0.2-0.9-0.4-1.4-0.7c-2.8-1.5-5.6-3.1-8.5-4.5c-7.4-3.8-11.8-9.8-13.2-18c-1-5.8-0.8-11.5,1.5-17
			c1.7-4,4.2-7.2,8-9.3c2.5-1.4,5-2.8,7.5-4.3c1.4-0.8,2.9-1.7,4.2-2.7c1.1-0.8,2-1.8,2.9-2.9c1.4-1.9,1.9-4.1,1-6.3
			c-0.6-1.5-1.4-3.1-2.3-4.5c-1.9-2.9-4.4-5.2-7.4-7.1c-1.6-1-3.3-1.9-5-2.9c-1.5-0.9-3-1.8-4.4-2.9c-4.7-3.5-6.9-8.2-7-14
			c0-2.6,0.4-5.1,1.5-7.4c1.1-2.4,2.7-4.4,4.9-5.7c1.3-0.8,2.6-1.5,4-2.1c4.2-1.7,8.3-3.3,12.5-4.8c5.7-2.1,10.8-5.2,15.3-9.2
			c2.1-1.9,3.9-4,5.5-6.3c4.2-6.2,5-12.9,2.5-19.9c-0.6-1.7-1.4-3.4-2.3-5c-1.1-2.2-2.4-4.3-3.5-6.5c-1.3-2.4-2.3-4.9-3.1-7.5
			c-1.2-4.4-0.7-8.6,2-12.3c0.9-1.3,1.9-2.6,3-3.7c4-4.1,8.5-7.5,13.4-10.4c4.6-2.8,9.7-4.1,15.1-3.9c3.6,0.1,7.2,0.2,10.8,0.3
			c4,0.1,8,0.1,11.9-1.2c0.3-0.1,0.6-0.1,0.9-0.1c0.2,0,0.5,0.1,0.8,0.2c0.1,0.6,0.3,1.3,0.4,1.9c-0.2,0.2-0.2,0.3-0.2,0.3
			c-4.3,2.3-8.6,4.6-13.1,6.4c-3.4,1.3-6.9,2-10.6,1.7c-3.8-0.3-7.1,1.1-10,3.3c-4.1,3.1-5.6,7.9-3.8,12.8c1.3,3.5,3,6.9,5.5,9.8
			c3.8,4.3,6.4,9.1,8.3,14.5c1.8,5,3.7,9.9,6.2,14.6c2,3.8,2.2,7.6,0.8,11.6c-1.5,4.5-3.5,8.8-5.6,13c-2.2,4.3-5.6,6.4-10.6,5.6
			c-0.7-0.1-1.4-0.2-2.1-0.4c-3.3-0.6-6.2,0.2-8.8,2.2c-1,0.7-1.1,0.9-1.7,2.6c0.1,1.2,0.7,2.1,1.6,2.8c1.3,1,2.7,2,4.1,2.8
			c1.7,0.9,3.4,1.7,5.2,2.4c8.4,3.1,14.8,8.8,20.4,15.4c0.7,0.8,1.1,1.7,1.3,2.8c0.2,0.8,0.4,1.5,0.6,2.1c0.4,0.3,0.7,0.5,1,0.6
			c1.4,0.7,2.2,1.8,2.7,3.2c0.7,2,1.2,4,1.8,6c0.7,2.4,0.2,4.6-0.9,6.7c-2,3.8-5.2,6-9.3,6.9c-1.4,0.3-2.8,0.4-4.3,0.5
			c-4.6,0.2-9.1,0-13.6-0.7c-4.7-0.7-9.4-0.7-14.1,0.1c-1.9,0.3-3.8,0.5-5.7,0.9c-4.9,1.1-9.1,3.5-12.6,7c-2,2.1-3.7,4.4-5.1,6.9
			c-0.3,0.6-0.6,1.1-0.8,1.7c-0.8,2.1-0.5,4,1,5.6c0.9,0.9,1.9,1.7,2.9,2.5C804,292.7,805.1,293.3,806.3,294.1z M809.1,253.7
			c0.2-0.8,0.4-1.5,0.6-2.2c0.5-1.5,0.9-3.1,1.7-4.5c1.1-1.9,1.5-3.8,1.2-6c-0.1-1-0.2-1.9-0.2-2.9c-0.2-3.1-1.3-5.9-3.4-8.2
			c-0.3-0.3-0.5-0.6-0.7-1c-1.3-2-3-3.5-5.1-4.6c-1.4-0.7-2.8-1.6-4.2-2.4c-2.2-1.3-3.5-3.4-4.7-5.6c0.3-0.5,0.5-1,0.9-1.3
			c1.8-1.7,3.6-3.4,5.6-4.9c1.6-1.3,3.4-2.3,5.2-3.4c1.2-0.8,2.5-1.5,3.3-2.7c0.2-0.3,0.6-0.6,0.2-1c-4.4,2.3-8.8,4.5-13.4,6.3
			c-0.4,0.2-0.9,0.4-1.3,0.7c-1.5,0.9-2.9,2-4.6,2.6c-0.3,0.1-0.5,0.3-0.8,0.6c-0.7,0.8-1.6,1.2-2.6,1.7c-3.4,1.7-4.5,5.8-2.4,9
			c0.4,0.7,0.9,1.3,1.2,2.1c0.9,2.6,2.8,4.2,5.4,5c1.4,0.4,2.5,1,3.5,2c1.1,1,2.4,1.9,3.9,2.4c2.5,0.8,4.2,2.6,5.4,4.8
			c0.6,1.1,1.2,2.1,1.9,3c1.3,1.7,2.1,3.6,2.5,5.4c-0.1,1-0.2,1.8-0.3,2.4C808.3,251.9,808.7,252.7,809.1,253.7z M831.7,202.6
			c0.3,0.3,0.5,0.7,0.8,0.8c0.4,0.2,1,0.2,1.4,0.1c2.3-0.6,4.7-1.1,7-1.8c3.3-1,5.4-3.3,6.6-6.5c0.6-1.4,1.1-2.8,1.5-4.3
			c0.6-1.9,0.7-3.8,0.3-5.7c-0.4-1.7-1-3.4-1.4-5.1c-0.6-2.9-1.7-5.5-3-8c-1.2-2.3-2.2-4.6-3.1-7c-0.4-1.2-1-2.4-1.8-3.4
			c-2.1-2.8-4.3-5.6-6-8.7c-0.2-0.4-0.5-0.7-1-1.3c0.1,2.3,0.9,3.9,1.8,5.5c0.9,1.6,1.7,3.2,2.1,5.1c0.6,2.5,1.3,4.9,1.9,7.4
			c0.1,0.4,0.2,0.8,0.2,1.2c0.1,3.6,0.3,7.2,0.4,10.8c0,1.1,0.2,2.2,0.5,3.3c0.3,1.1,0.5,2.3,0.5,3.5c0.1,2.1-0.7,3.9-1.6,5.7
			c-0.8,1.5-1.6,3-2.3,4.5c-0.9,1.7-2,3.1-4,3.5C832.3,202.3,832.1,202.4,831.7,202.6z"/>
		<path d="M478.2,277c-11-5-21.8-9.9-32.4-14.8c-0.6-1-0.4-1.8-0.3-2.6c0.8-5,2.5-9.7,5.6-13.8c4.5-5.8,8.9-11.7,13.3-17.6
			c3-4,6-7.9,8.9-11.9c1.8-2.5,3.2-5.1,4.5-7.9c0.7-1.6,1-3.4,1.2-5.1c0.1-1.7,0.1-3.5,0-5.3c0-1.4-0.5-2.6-1.4-3.7
			c-3-3.6-2.4-8.3,0-11.5c2.3-3.1,5.2-5.4,8.6-7.2c2.2-1.2,4.5-2.2,6.8-3c5.4-2,10.1-5.2,13.8-9.7c2.1-2.5,3.7-5.2,5-8.1
			c2-4.5,3.6-9.2,5.2-13.9c1.7-5.1,0.9-10-1.4-14.6c-1.3-2.6-2.8-5-4.2-7.5c-2.1-3.8-3.7-7.8-4.6-12c-0.9-4.5-2.9-8.4-6.1-11.8
			c-1.7-1.8-3.6-3.4-5.6-4.9c-4.2-3-8.6-5.5-13-8.2c-1.1-0.7-2.1-1.5-3.1-2.2c-0.4-0.3-0.6-0.7-0.2-1.3c0.6-0.4,1.1,0,1.6,0.2
			c3.7,1.1,7.2,2.7,10.6,4.5c7.7,4.1,15.1,8.7,21.9,14.2c3.8,3.1,7.1,6.6,10.2,10.4c2.8,3.5,5.4,7.1,7.8,10.9
			c3.9,6.3,6.5,13,7.6,20.3c0.5,3.1,0.4,6.4,0.4,9.6c0,5-1,9.8-1.9,14.7c-0.9,4.9-2.4,9.6-4.4,14.1c-1.5,3.4-2.9,6.9-4.3,10.4
			c-1.4,3.4-2.6,6.9-3.5,10.4c-0.7,3-0.7,6,0,9c0.6,2.6,1.4,5.2,2.1,7.9c2.2,7.2,1.5,14-3.2,20.2c-2.3,3-5.1,5.5-8.2,7.7
			c-3.8,2.7-7.6,5.3-11.4,7.9c-5.7,3.9-11,8.2-15.8,13.2c-3.6,3.7-6.7,7.7-9.5,12.1C478.7,276.2,478.5,276.4,478.2,277z M518,221.7
			c-0.3,0.5-0.5,0.9-0.8,1.3c-1,1.7-2.5,2.7-4.5,2.8c-1.6,0.1-2.9,0.6-4.4,1.1c-1.7,0.5-3,1.6-3.8,3.1c-0.7,1.2-1.4,2.4-1.7,3.7
			c-0.7,3.2-2.2,5.8-5,7.6c0,1.7-0.9,3-2.1,4.1c-1,0.9-1.7,2.1-2.6,3.1c-0.1,0.1,0,0.3,0,0.5c0.5,0.6,1.1,0.4,1.7,0.2
			c0.9-0.4,1.7-0.9,2.6-1.2c2.6-0.6,4.7-2,6.1-4.3c0.1-0.2,0.3-0.4,0.4-0.5c0.7-0.3,1.2-0.5,1.7-0.7c1.6-0.6,2.9-1.6,3.8-3.1
			c0.7-1.1,1.6-2,2.7-2.6c1.5-0.9,2.6-2.1,3.4-3.6c0.4-0.8,0.9-1.5,1.4-2.3C518.8,228.1,519.2,225.1,518,221.7z M505.4,168.7
			c-1.1,1.2-1.8,2.1-2.6,2.8c-0.8,0.7-1.9,1.2-2.7,1.9c-0.9,0.8-1.9,1.4-2.9,2.1c-2.1,1.5-4.3,2.4-6.8,2.6c-0.8,0.1-1.5,0.4-2.2,0.8
			c-1.6,0.9-5,6.2-5.3,8c-0.6,3.3,0.3,6.2,2.2,8.8c0.1,0.1,0.4,0.1,0.8,0.3c0.1-0.8,0.2-1.5,0.2-2.2c0.4-3.3,1.9-5.7,4.9-7.2
			c1.3-0.7,2.3-1.6,3.3-2.7c0.5-0.6,1-1.2,1.7-1.7c0.9-0.7,1.7-1.5,1.8-2.2c1.5-1.5,2.9-2.6,4-4c1.3-1.8,2.4-3.8,3.5-5.7
			C505.3,170,505.3,169.6,505.4,168.7z"/>
		<path d="M732.8,390.9c-6.4-2.5-12.8-4.9-19.5-7.4c0.9-0.4,1.5-0.7,2.2-1c17.3-8.2,35-15.4,52.4-23.2c6-2.7,12.1-5.5,18.1-8.3
			c1.4-0.6,2.7-1.5,3.9-2.3c0.4-0.3,0.8-0.7,1.5-1.4c-1.1,0.1-1.7,0-2.3,0.2c-1.5,0.4-2.9,0.9-4.3,1.5c-10.4,4.4-20.7,8.9-31,13.4
			c-13.1,5.7-26.3,11.3-39.2,17.4c-1.5,0.7-3.1,1.3-4.6,2c-0.8,0.3-1.5,0.3-2.3,0c-1.6-0.7-3.2-1.4-4.8-2.2
			c-0.6-0.3-1.1-0.6-1.6-0.9c0-0.9,0.7-0.9,1.1-1.1c4.4-2,8.8-3.9,13.2-5.8c22.9-10,45.8-20.1,68.8-30.1c3.1-1.4,6.3-2.8,9.4-4.2
			c3.5-1.5,5.9-4,7.4-7.5c1.2-2.7,2.7-5.2,4.3-7.7c2-3.1,4.3-6,6.7-8.7c1.8-2.1,3.8-4.1,6.1-5.7c3.5-2.6,6.8-5.3,10.4-7.8
			c4.6-3.2,9.7-5.6,14.7-8c10.2-4.9,20.8-8.6,31.9-11.1c7.7-1.7,15.2-4.3,22.7-6.9c10.1-3.5,20-7.8,29.8-12c0.9-0.4,1.7-0.9,2.6-1
			c0.5,0.4,0.4,0.8,0.1,1.1c-1.2,1.1-2.3,2.3-3.6,3.2c-5.7,4-11.4,7.9-17.3,11.7c-6,3.9-12.4,7-18.7,10.2c-6.5,3.3-13,6.5-19.3,10.1
			c-5.3,3.1-10.2,6.5-15.2,10.1c-2.8,2-4.8,4.6-6.5,7.6c-1.3,2.4-0.9,5,0.9,6.6c1.1,0.9,2.3,1.4,3.7,1.5c2.2,0.1,4.3,0.1,6.5-0.2
			c6.3-1,12.3-3,18-5.7c6.1-2.9,12.1-5.9,18.1-8.8c8.4-4,16.9-8,25.4-12c4.1-1.9,8.2-3.5,12.6-4.7c2.7-0.7,5.4-1.5,8.1-2.3
			c1-0.3,2-0.5,3.1,0.3c-0.3,0.3-0.5,0.7-0.8,0.9c-0.8,0.5-1.7,0.9-2.5,1.4c-5.2,2.6-10.3,5.1-15.1,8.3c-3.1,2.1-6.1,4.4-9.2,6.6
			c-1.6,1.1-3.1,2.3-4.7,3.4c-5.6,3.9-11.1,7.9-16.3,12.3c-11.2,9.4-23.4,17.3-36.6,23.5c-6.6,3.1-13.4,5.7-20.5,7.3
			c-8.2,1.8-16.3,2.1-24.5,0.4c-1.8-0.4-3.6-0.6-5.5-0.6c-2.2,0-4.3,0.5-6.2,1.5c-5.5,2.8-11,5.6-16.4,8.4
			c-17.4,8.9-34.9,17.8-52.3,26.8C734.6,390,733.7,390.4,732.8,390.9z"/>
		<path d="M803.6,537.7c0.5,0.1,0.9,0.2,1.4,0.3c1.5,0.2,3,0.3,4.5-0.1c2.9-0.7,4.9-2.4,5.9-5.1c0.5-1.3,0.8-2.8,1-4.2
			c0.2-1.3,0.2-2.7,0.2-4.1c0-11.8-0.1-23.7-0.2-35.5c0-4.9-1-9.5-2.8-14c-0.4-1-0.9-2-1.4-3c-1.8-3.3-3.3-4.7-6.6-6.6
			c0.3-0.3,0.5-0.6,0.8-0.8c2.9-1.6,5.8-1.6,8.6,0.1c0.4,0.2,0.8,0.5,1.4,0.9c0.1-0.7,0.1-1.2,0.1-1.6c0-7.9,0-15.8,0-23.8
			c0-2.1-0.2-4.2-0.8-6.2c-0.2-0.7-0.4-1.4-0.7-2c-1.7-4-4.7-6.4-10.4-6c-0.5,0-1.1,0.1-2,0.3c0.5-0.5,0.7-0.8,1-1
			c3.4-2.4,7.3-3.6,11.4-3.8c3.2-0.2,6.4,0.3,9.5,1.1c4.7,1.1,9.3,1,14,0.2c4.7-0.8,9.5-1.3,14.3-1.1c5.9,0.2,11.6,1.1,17.2,3
			c6,2,11,5.5,15.4,9.8c3.6,3.6,6.4,7.8,8.7,12.3c2.8,5.5,4.6,11.4,5.8,17.5c1.8,9,2.2,18.1,1.6,27.2c-0.4,6.2-1.2,12.4-2.6,18.5
			c-1.8,7.7-4.3,15.1-8.4,21.9c-3.2,5.3-7.2,9.8-12.5,13c-5.7,3.4-11.8,4.8-18.4,4.2c-5-0.5-9.9-1.9-14.7-3.2
			c-7.2-2-14.5-2.9-22-2.5c-2.9,0.2-5.8-0.1-8.6-0.4c-3-0.3-5.7-1.4-8.4-2.8C805.1,539.5,804.1,538.9,803.6,537.7z M839.1,530.5
			c4.4,2.1,8.7,3.5,13.3,3.8c1.6,0.1,3.2,0.1,4.8-0.2c3.6-0.5,6.4-2.4,8.7-5.1c3.1-3.6,4.9-7.8,6.3-12.3c2-6.6,3-13.4,3.5-20.3
			c0.7-10.5,0.8-21.1-0.6-31.6c-0.9-6.4-2.4-12.5-5.1-18.4c-1.6-3.4-3.7-6.3-6.4-8.9c-2.9-2.7-6.4-4.1-10.4-4.4
			c-4.1-0.3-8.1,0.1-12.2,0.6c-0.6,0.1-1.2,0.3-1.9,0.5C838.9,466.4,838.7,498.4,839.1,530.5z"/>
		<path d="M996.3,505.1c-1.8,4-5.2,4.8-9,4.9c0.3,0.9,0.4,1.6,0.7,2.2c2,6.1,2.9,12.3,2.7,18.7c-0.2,7.5-1.9,14.6-5.3,21.2
			c-3.4,6.6-8.3,11.7-14.8,15.3c-2.7,1.5-5.7,2.1-8.7,2.6c-7.6,1.2-15-0.1-22.2-2.6c-9.3-3.3-17.1-9-23.4-16.6
			c-4.7-5.7-7.8-12.1-9-19.3c-1.2-6.9-0.7-13.5,2.6-19.8c1-2,2.3-3.8,3.9-5.5c3.6-3.8,8-5.8,13.1-6.2c2.7-0.3,5.4-0.2,8.1,0.5
			c4.5,1.2,8.1,3.6,10.7,7.5c1.1,1.7,1.8,3.6,2.1,5.6c0.5,3.5-0.5,6.5-3.1,9c-0.3-0.2-0.6-0.4-0.8-0.6c-2.9-3.3-6.9-4.5-11-2.9
			c-3.7,1.4-6.1,4.1-6.6,8.1c-0.8,6.2,0.6,11.9,4.2,17.1c4.5,6.4,10.7,9.9,18.6,10.3c8.1,0.4,14.5-3.8,17.5-11
			c3.3-7.9,3.4-16,1.1-24.2c-2.1-7.6-5.9-14.5-10.6-20.8c-7.3-9.7-16.4-17.3-27-23c-4-2.2-8.3-3.8-12.8-4.6c-0.5-0.1-1-0.1-1.4-0.2
			c-0.5-0.1-0.9-0.2-1.5-0.3c0.3-2.1,1.8-3.1,3.3-3.9c1.5-0.8,3.2-1.2,5-1.9c-0.4-0.6-0.7-1.3-1.1-2c-4.5-8.3-4.9-16.8-0.7-25.3
			c2.9-5.9,7.6-10.1,13.5-12.8c12-5.3,24.2-6,36.5-0.9c1.5,0.6,3.1,1.3,4.7,1.8c1,0.3,2,0.5,3.1,0.5c2.4,0,3.9-1.2,4.5-3.5
			c0.1-0.2,0.1-0.5,0.1-0.7c0.1-0.2,0.2-0.4,0.2-0.7c3.2,1.2,5.2,4.6,5.1,8.4c-0.1,3.2-1.4,5.3-5.4,8.5c1.2,4.8,1.5,9.6-2.6,13.5
			c-2.7,2.6-6.6,4.2-9.8,3.9c0.1-0.5,0.2-0.9,0.3-1.3c1-3.9,0.7-7.8-1-11.5c-1.4-3-3.5-5.4-6.6-6.7c-5.3-2.3-10.7-2.7-16.1-0.9
			c-4.8,1.5-7.5,4.9-8.5,9.8c-0.5,2.7,0.2,5.2,1.6,7.6c1.2,1.9,2.7,3.6,4.3,5.1c2.2,2,4.5,3.9,6.8,5.7c4.2,3.3,8.5,6.6,12.2,10.5
			c2.4,2.5,4.6,5.1,6.9,7.7c4.6,5.2,9.2,10.5,14.1,15.4c2,2,4.2,4,6.6,5.6C993.1,503.3,994.6,504.1,996.3,505.1z"/>
		<path d="M762.6,480c0.5,0.3,1,0.5,1.5,0.8c4.5,2,8.1,5.1,11.1,9c2.5,3.3,4.4,7.1,5.8,11c1.8,4.8,3.1,9.8,4.3,14.7
			c0.8,3.1,1.5,6.2,2.4,9.3c0.5,1.8,1.2,3.6,2,5.4c0.6,1.4,1.4,2.7,2.4,3.9c1.5,2,3.6,3.1,6.2,3.3c0.4,0,0.8,0.1,1.4,0.1
			c-0.3,0.4-0.5,0.8-0.7,1c-1.7,1.1-3.7,1.5-5.7,1.7c-5.5,0.6-10.6-0.7-15.4-3.6c-0.6-0.4-1.2-0.7-1.9-1.1
			c-3.1,1.9-6.5,2.8-10.1,2.6c-3.5-0.1-7-0.6-10.2-2.3c-0.8-0.4-1.5-0.8-2.1-1.7c0.8,0,1.4,0,2,0c2.3,0,3.6-1,4.1-3.2
			c0.2-0.8,0.4-1.7,0.4-2.6c-0.2-9.8-0.9-19.5-3.7-28.9c-0.9-2.9-2-5.7-3.5-8.4c-1.4-2.5-3.1-4.7-5.4-6.4c-0.3-0.2-0.5-0.3-0.7-0.4
			c-4.4,0.5-8.8,0.9-13.3,1.4c-0.1,0.7-0.1,1.3-0.1,1.9c0.1,11.2,0.2,22.4,0.4,33.6c0,1.8,0.2,3.5,0.7,5.2c1.2,4.2,4.5,6.9,8.9,7.3
			c1.4,0.1,2.8,0.1,4.5,0.1c-0.4,0.5-0.6,1-1,1.2c-1.5,1-3.2,1.5-5,1.6c-6.5,0.5-12.8-0.3-18.6-3.6c-0.3-0.2-0.6-0.3-0.9-0.4
			c-1.3,0.5-2.6,1.1-4,1.6c-1.3,0.5-2.5,1-4,0.9c0-0.3-0.1-0.6,0-0.7c1.1-2.1,1.5-4.4,2-6.6c0.2-1,0.1-2.1-0.1-3.1
			c-0.5-3.6-2.2-6.5-5-8.8c0-0.6-0.1-1.3-0.1-1.9c0-3.6,0-7.2,0-10.8c-0.1-6.2-0.1-12.3-0.3-18.5c-0.1-4.5-1.3-8.8-3.3-12.9
			c-1.6-3.3-3.7-6.2-7.2-7.7c-0.1-0.1-0.2-0.2-0.3-0.4c3.1-2.6,5.9-2.6,10.7-0.2c0-0.6,0.1-1.1,0.1-1.7c0-7.4,0-14.9,0-22.3
			c0-1.7-0.2-3.3-0.5-5c-0.1-0.9-0.4-1.7-0.7-2.5c-1.7-4.4-4.7-6.5-9.9-6.3c-0.8,0-1.6,0.2-2.8,0.3c0.7-0.6,1-0.9,1.3-1.1
			c2.8-1.9,5.9-2.8,9.2-3.1c3-0.3,5.9-0.2,8.8,0.3c2.6,0.4,5.2,0.7,7.8,1.2c2.7,0.5,5.3,0.1,7.9-0.3c6.9-1.1,13.8-1.6,20.8-1.2
			c6,0.4,11.9,1.3,17.6,3.3c3.5,1.2,6.7,2.9,9.6,5.3c5,4.1,7.6,9.4,8.1,15.7c0.8,10.7-3.6,19.1-11.4,26c-3.5,3.1-7.6,5.3-11.9,7.1
			c-0.7,0.3-1.3,0.5-2,0.8C762.8,479.8,762.7,479.8,762.6,480z M733.4,432.7c0,13.6,0,27,0,40.4c0,0.3,0.1,0.6,0.2,1
			c0.4,0.1,0.7,0.1,1,0.1c5-0.2,9.8-1.1,14.4-3.2c5.6-2.7,9.7-7,12-12.8c1.3-3.3,2-6.7,2-10.3c0.1-7.6-3.7-12.5-9.8-15
			c-0.3-0.1-0.6-0.2-0.9-0.3c-3.7-1.4-7.6-1.8-11.5-1.5C738.3,431.2,735.9,431.6,733.4,432.7z"/>
		<path d="M517.7,437.2c-0.3,3-0.2,40.9,0.2,43.2c0.3-0.6,0.6-1,0.7-1.4c3.5-7.7,9.4-12.3,17.4-14.5c3.1-0.9,6.3-1,9.5-0.2
			c1.1,0.3,2.2,0.6,3.2,1.1c4,2,5.8,6.2,4.5,10.5c-1.3,4.4-4.4,7.3-8.8,9.1c-0.2-0.4-0.4-0.7-0.4-1.1c-0.3-1.5-1.2-2.4-2.5-3
			c-1.1-0.5-2.3-0.8-3.5-0.8c-6.6,0.1-11.8,2.7-15.1,8.5c-1.8,3.2-2.8,6.6-3.5,10.2c-0.8,4.2-1.1,8.4-1.3,12.6
			c-0.3,7-0.1,13.9,0.3,20.9c0,0.2,0.1,0.5,0.1,0.9c0.5,0.1,1,0.2,1.5,0.2c1.9-0.1,3.8-0.3,5.7-0.5c6-0.8,12.1-1.5,18.1-2.4
			c4.6-0.7,9.1-2,13.3-3.8c1.5-0.7,3-1.4,4.5-2.3c2-1.1,3.6-2.7,4.8-4.6c0.2-0.3,0.4-0.6,0.7-1c2.4,2.9,3,5.9,1.3,9.2
			c-0.6,1.1-1.2,2.2-1.9,3.3c-1.1,1.6-1.4,3.3-0.8,5.2c0.6,1.8,0.2,3.5-1.2,4.9c-4.4-0.5-8.8-0.4-13.1-0.1
			c-4.1,0.3-8.1,0.7-12.2,1.2c-5.1,0.6-10.1,1.3-15.2,2c-8.5,1.2-16.9,2.8-25.2,5c-3.5,0.9-7,1.7-10.7,1.3c-1.5-0.2-3-0.6-4.4-0.9
			c-0.4-0.1-0.7-0.4-1-0.6c0.2-0.7,0.6-0.4,1-0.5c1.5-0.4,3.2-0.6,4.6-1.2c4.1-1.7,6.3-5.1,7-9.4c0.3-1.9,0.4-3.8,0.4-5.7
			c0-5.2-0.2-10.4-0.3-15.6c-0.1-7.4-0.1-14.7-0.2-22.1c-0.1-5.5-1.1-10.8-3.2-15.9c-0.2-0.6-0.5-1.2-0.8-1.8
			c-1.6-3.1-3.5-5.9-7.1-7.3c0.3-0.4,0.4-0.8,0.7-1c2.8-2.3,6.8-2.5,9.3-0.4c0.2,0.1,0.4,0.2,0.8,0.3c0.1-0.5,0.2-0.8,0.2-1.2
			c0-8.7,0-17.4,0-26.2c0-2.2-0.1-4.5-0.7-6.7c-0.3-1-0.5-2-1-3c-1.7-3.7-4.6-5.6-8.8-5.5c-1,0-1.9,0.1-3.2,0.2
			c0.4-0.5,0.6-0.8,0.9-1.1c2.9-2.5,6.4-3.4,10.2-3.8c3-0.3,5.9,0,8.8,0.5c4.2,0.8,8.5,1.2,12.9,1.4c11,0.5,22.1,0.4,33.1,0
			c3.2-0.1,6.4-0.5,9.5-0.9c1.7-0.2,3.3-0.6,5.1-1c1.2,0.8,1.3,2,1,3.3c-0.2,0.9-0.7,1.8-1.1,2.7c-0.4,0.9-0.7,1.7-1,2.4
			c0.1,1.5,0.5,2.6,1.1,3.7c0.3,0.6,0.6,1.1,0.9,1.7c0.8,1.6,0.9,3.2,0.3,4.9c-0.7,2.1-1.9,4.1-3.6,5.6c-0.2-0.2-0.4-0.5-0.5-0.7
			c-1.7-3.1-4.3-5.1-7.4-6.6c-3.1-1.4-6.4-2.1-9.7-2.5c-5.9-0.6-11.8-0.2-17.7,0.2C522,436.4,519.9,436.4,517.7,437.2z"/>
		<path d="M669.3,496c-1.5,2-3,3.7-4.2,5.5c-0.8,1.1-1.4,2.4-1.8,3.6c-0.6,1.7-1,3.5-1.3,5.4c-0.3,1.5-0.2,3,0.1,4.5
			c0.6,2.6,1.1,5.3,2.7,7.6c-2.9,2.8-5.1,5.9-6.8,9.6c-2,0.4-3.6,1.7-5.1,3c-6.2,0.5-11.1-0.3-13.7-2.3c0-0.5,0.5-0.3,0.7-0.3
			c0.3-0.1,0.6,0,1,0c1.4,0,2.7-0.3,4-0.9c3.8-1.8,5.6-4.9,5.9-8.9c0.2-3-0.4-5.9-1.6-8.6c-1.6-3.7-4.1-6.8-7.2-9.4
			c-4.9-4-10.5-6.4-16.6-7.6c-2.2-0.4-4.4-0.7-6.6-1c-0.5-0.1-1.1,0-1.8,0c-0.4,1.6-0.8,3-1,4.5c-0.8,4.6-1.7,9.3-2.3,14
			c-0.5,4-0.7,8,0.2,11.9c0.3,1.2,0.7,2.3,1.2,3.4c1.2,2.3,3.2,3.5,5.8,3.6c1,0,2,0,3.6,0c-0.8,0.6-1.1,0.9-1.5,1.1
			c-2.1,1.3-4.4,1.9-6.8,2.2c-4.1,0.4-8.2,0.3-12.2-0.7c-1.3-0.3-2.6-0.8-4.1-1.3c-0.5,0.2-1.1,0.5-1.8,0.8
			c-4.2,2.2-8.7,3.2-13.4,3.4c-2.5,0.1-5-0.3-7.2-1.5c-0.3-0.2-0.6-0.4-0.9-0.7c0.4-0.7,0.9-0.4,1.4-0.4c3-0.1,5.6-1.4,7.6-3.5
			c1.7-1.8,3.2-3.8,4.4-6c2.4-4.2,4.4-8.7,6.3-13.2c2.1-5.2,4.1-10.4,6.1-15.6c0.2-0.6,0.3-1.2,0.5-1.8c-5,0-11,2.9-15.3,7.2
			c-3.5-2.2-4.9-5.5-3.9-9.4c0.6-2.2,1.8-4.1,3.6-5.6c1.8-1.6,3.9-2.7,6.2-3.6c3-1.2,6.1-1.9,9.3-2.3c1.3-0.2,2.5-0.3,3.9-0.5
			c0.2-0.5,0.5-1.1,0.6-1.7c2.7-10.6,5.5-21.2,7.6-32c0.7-3.7,1.2-7.4,1.6-11.2c0.2-1.9,0-3.8-0.4-5.7c-0.7-3.6-2.8-5.4-6.5-5.5
			c-0.5,0-1.1,0-2,0c0.6-0.6,0.9-0.9,1.3-1.2c2.9-1.9,6.2-3,9.7-3.2c4.5-0.3,9-0.1,13.2,1.5c0.4,0.2,0.9,0.3,1.3,0.4
			c2.2-0.5,4.4-1,6.6-1.4c4.2-0.8,8.4-0.6,12.7-0.5c2.2,0,4.3,0.4,6.3,1.1c1.6,0.6,3,1.4,4.5,2.2c0.3,0.2,0.5,0.5,1,1
			c-1.3,0-2.1,0-3,0c-3.8,0.2-6.1,2.1-6.8,5.8c-0.3,1.4-0.3,2.8-0.1,4.3c1.1,5.6,2.2,11.3,3.3,16.9c2.8,13.9,6.7,27.5,10.9,41
			C669,494.7,669.2,495.4,669.3,496z M633,438.9c-1.2,3.1-2,6-2.8,8.9c-0.8,2.9-1.7,5.8-2.5,8.8c-0.8,2.9-1.6,5.9-2.4,8.8
			c-0.8,2.9-1.6,5.9-2.3,8.8c-0.7,2.9-1.6,5.8-2.2,8.9c0.8,0.2,1.4,0.3,2,0.5c0.6,0.1,1.2,0.3,1.9,0.4c0.6,0.1,1.2,0.3,1.9,0.5
			c0.6,0.2,1.2,0.3,1.8,0.5c0.6,0.2,1.2,0.4,1.8,0.6c0.6,0.2,1.2,0.5,1.8,0.7c0.6,0.2,1.2,0.5,1.8,0.7c0.6,0.3,1.2,0.5,1.7,0.8
			c0.6,0.3,1.1,0.6,1.7,0.9c0.6,0.3,1.1,0.6,1.7,1c0.5,0.3,1.1,0.7,1.6,1c0.5,0.4,1.1,0.7,1.6,1.1c0.5,0.4,1,0.8,1.5,1.2
			s1,0.8,1.5,1.2c0.4,0.3,0.8,0.9,1.6,1c-0.1-0.5-0.2-0.9-0.3-1.3c-1.1-4.1-2.3-8.2-3.1-12.3c-2.1-10-4.1-20-6.2-30
			c-0.7-3.3-1.5-6.5-2.3-9.8C634.3,440.8,634.1,439.8,633,438.9z"/>
		<path d="M868.5,378.7c0.4-0.9,0.8-1.8,1.1-2.7c1.5-4.5,2.9-9,4.4-13.4c0.6-1.8,0.6-3.5-0.1-5.2c-1-2.3-2.1-4.5-3.2-6.7
			c-0.3-0.7-0.7-1.4-1.2-2.2c3.7-2.1,7.3-4.2,10.8-6.3c3.6-2.1,7-4.4,10.4-6.9c3.3-2.5,6.6-5,10-7.6c0.1,0,0.4,0.1,0.5,0.2
			c2.7,2.4,6,3.6,9.5,4.4c1.7,0.4,3.4,0.7,5.1,1.2c7.3,2,13.5,5.9,18.4,11.6c5.2,6,10.1,12.2,15,18.4c2.2,2.7,3.9,5.7,5.1,8.9
			c0.9,2.3,1.4,4.7,1.3,7.3c-0.1,3.2-1.4,5.9-3.9,7.9c-1.8,1.5-3.9,2.5-6.2,3.1c-3.9,1-7.9,1-12.1,1.1c0.2-0.5,0.3-0.9,0.5-1.2
			c0.6-0.5,1.2-1,1.9-1.5c0.9-0.7,1.9-1.3,2.7-2c3.3-2.8,4.6-7.6,3.2-11.8c-0.3-0.8-0.5-1.7-0.5-2.6c-0.1-1.9-0.6-3.6-1.2-5.4
			c-0.3-0.8-0.7-1.6-1.1-2.4c-1.1-2.1-2.2-4.3-3.3-6.3c-2.2-1.4-4.3-2.7-6.3-4.2c-0.9-0.6-1.7-1.5-2.4-2.4c-1.7-2.2-3.9-3.7-6.4-4.9
			c-2.8-1.4-5.7-2.3-8.8-3.2c0.2,0.2,0.3,0.4,0.5,0.5c1.4,0.7,2.4,1.7,3.3,3.1c0.8,1.4,1.8,2.6,2.9,3.8c1.4,1.6,2.7,3.4,3.6,5.4
			c0.7,1.6,1.7,3.1,3,4.3c2.9,2.6,4.1,6.1,5,9.7c0.3,1.3,0.1,2.5-0.3,3.8c-0.4,1.3-0.6,2.6-1,3.9c-0.3,0.9-0.5,1.9-1.1,2.6
			c-2.5,3.2-4.2,6.8-6,10.4c-0.5,0-1.1,0.1-1.6,0.1c-23.7,0-47.4,0.1-71,0.1c-0.8,0-1.6,0-2.5,0c-0.2-0.6-0.4-1-0.4-1.4
			c0-1-0.1-1.9,0-2.9c0.3-3.5,1.8-6.2,4.7-8.2c3.7-2.5,7.7-3,11.9-2c1.1,0.2,2.2,0.6,3.2,0.9C866.8,378.3,867.6,378.4,868.5,378.7z
			 M884.3,348.5c-0.4,0.3-0.6,0.4-0.8,0.6c-1.2,1.6-1.9,3.5-2.3,5.5c-0.1,0.6-0.2,1.3-0.5,1.9c-0.7,1.9-0.8,4-0.3,5.9
			c0.7,2.5,0.2,4.3-1.6,6c-1.2,1.2-1.9,2.7-2.2,4.4c-0.1,0.9-0.4,1.7-0.7,2.5c-1.1,2.5-0.7,5,0.1,7.5c0.1,0.4,0.3,0.7,1,0.7
			c0.1-0.3,0.2-0.7,0.3-1c0.2-1.7,0.8-3.3,1.5-4.8c1-2.3,2.7-3.9,4.8-5.2c1.8-1,3.7-1.5,5.7-1.8c0.5-0.1,0.9-0.2,1.3-0.3
			c0.5-1.8,0.4-3.5-0.2-5c-0.7-1.6-1.2-3.3-1.3-5.1c-1.6-1.5-3.2-3-4.1-5C884.2,353.2,884.2,351,884.3,348.5z"/>
		<path d="M578.5,306.4c0.8,0.6,1.5,1.1,2.2,1.6c0.6,0.4,1.2,0.9,1.7,1.4c1.7,1.8,2.1,3.9,1.1,6.2c-0.3,0.6-0.7,1.3-1.1,1.8
			c-1.3,1.7-2.9,3.2-4.6,4.4c-0.3,0-0.6,0.1-0.8,0c-0.7-0.3-1.5-0.6-2.2-0.9c-1.8-0.8-3.6-1.7-5.6-2.6c0.5-0.4,0.9-0.7,1.3-1
			c1.1-0.6,2.1-1.1,3.2-1.6c0.5-0.3,1-0.4,1.5-0.7c2.3-1.4,2.7-3.3,1-5.4c-1.2-1.6-2.6-3.1-4.1-4.3c-2.3-1.9-4-4.1-4.9-7
			c-0.7-2.3-2.2-3.7-4.5-4.2c-4-0.9-7.2-3.4-10.4-5.8c-0.5-0.4-0.9-0.9-1.3-1.4c-1.1-1.4-2.1-2.8-3.2-4.2c-0.5-0.9-0.5-1.8-0.3-2.8
			c0.5-2.2,0.9-4.4,1.4-6.6c0.7-3,1-6,1-9c0-2.4-0.9-4.3-2.7-5.9c-1.9-1.5-3.7-3-5.5-4.6c-1.3-1.1-2.5-2.2-3.7-3.5
			c-1.7-1.8-2.3-4-2-6.4c0.1-1,0.3-2.1,0.4-3.1c0.4-3-0.1-5.9-1.6-8.6c-0.6-1-1.4-1.9-2.2-2.8c-0.3-0.4-0.7-0.6-1.1-1
			c-2-2.1-2.2-4.7-0.5-7c0.8-1.1,1.7-2.1,2.5-3.2c1.3-1.5,1.6-3.1,0.5-4.9c-0.8-1.3-0.6-2.6,0-3.9c0.4-0.7,0.7-1.4,1.3-2
			c1-1.1,2.1-2.3,3.3-3.1c5.7-4,11.8-7,18.7-8.2c2.5-0.4,5.1-0.7,7.6-0.3c0.8,0.1,1.6,0.1,2.4,0.1c2.2,0,4.3-0.6,6-2.1
			c1.4-1.2,2.9-1.9,4.7-2.3c0.7-0.2,1.4-0.3,2.1-0.5c1.5-0.5,2.7-1.3,3.7-2.5c2.2-2.6,2.3-6,0.1-8.6c-1-1.2-2.2-2.1-3.3-3.2
			c-0.6-0.6-1.3-1.2-1.9-1.8c-0.3-0.3-0.4-0.8-0.6-1.3c1.4-0.5,2.7-0.4,3.9-0.1c4.5,1.1,8.2,3.5,10.6,7.6c1,1.7,1.6,3.5,1.7,5.4
			c0.2,5.3-0.9,10.3-4.2,14.7c-2.1,2.8-4.8,4.9-8.2,5.9c-2.1,0.6-4.3,1.2-6.4,1.9c-1.1,0.4-2.3,0.8-3.3,1.4c-2,1.2-3.1,3-3.2,5.3
			c-0.1,1.9,0.1,3.7,0.8,5.4c0.5,1.1,0.7,2.3,1,3.5c0.5,2.5-0.2,4.6-2,6.3c-2.2,2.1-4.9,3.2-8,3.4c-1.6,0.1-3.2-0.1-4.8-0.1
			c-1.7,0-3.4,0-5,0c-1.9,0.1-3.4,0.9-4.4,2.5c-1.5,2.2-2.5,4.7-3.2,7.2c-0.7,2.2,0.2,4.3,1.9,5.9c1,0.9,2.1,1.8,3.2,2.5
			c4.1,2.7,7.5,6,10.4,9.9c2.4,3.2,5.7,5,9.8,5.4c3,0.3,6.1,0.4,9,1.3c1.8,0.6,3.7,1.2,5.4,2c3,1.4,5.2,3.8,6.7,6.7
			c1.8,3.5,1.8,7.1-0.2,10.5c-0.5,0.8-1,1.6-1.6,2.4c-1.5,1.7-3,3.3-4.5,5c-0.6,0.6-1.2,1.3-1.9,1.9
			C578.8,299.7,577.8,302.7,578.5,306.4z M553.2,228.5c1,0.4,2,0.9,3.1,1.3c1.3,0.5,2.6,0.7,4,0.3c1-0.3,2-0.4,3.1-0.5
			c1.4-0.2,2.6-0.7,3.6-1.7c1.5-1.4,2-3.1,1.2-5c-0.6-1.3-1-2.7-1.2-4.1c-0.1-0.5-0.2-0.9-0.4-1.4c-0.1-0.3-0.3-0.8-0.9-0.6
			c-0.4,0.9-0.7,1.9-1.2,2.8c-0.8,1.7-2.1,2.8-4,3.1c-0.6,0.1-1.2,0.4-1.9,0.6c-0.3,0-0.8-0.1-1.3-0.1c-0.5,0-0.9,0.1-1.4,0.2
			c-0.3,0.6-0.7,1.1-1,1.7c-0.6,0-1.2,0.1-1.7,0.1c-1.1,0.1-2,0.6-2.7,1.4c-0.8,0.8-0.7,1.4,0.4,2.4
			C551.6,228.9,552.3,228.8,553.2,228.5z"/>
		<path d="M459.4,316.8c0.5-0.4,0.7-0.1,1,0c2.4,1.2,4.8,2.5,7.2,3.7c2.6,1.3,5.1,2.6,7.7,3.9c0.3,0.1,0.6,0.3,0.9,0.4
			c4.9,2.5,9.8,5.1,14.7,7.6c4.6,2.3,9.1,4.6,13.7,6.9c3.1,1.6,6.1,3.2,9.2,4.7c0.6,0.3,1.2,0.5,1.7,0.8c1,0.6,2.1,1.2,3.1,1.9
			c3.2,2.4,6.7,4.3,10.6,5.4c2.2,0.7,4.2,1.8,6.3,2.8c3.2,1.5,6.3,3.2,9.4,4.8c2,1,4,2,6,3c3.1,1.6,6.1,3.2,9.1,4.7
			c2.4,1.2,4.8,2.4,7.3,3.7c0.3,0.2,0.7,0.4,1.1,0.6c-0.3,1-0.9,1.7-1.5,2.5c-3.2,3.9-7,7.3-11.1,10.2c-3.5,2.5-7.2,4.8-10.8,7.2
			c-15.5,0-31,0-46.6,0c-0.2-1,0.5-1.5,1-2.1c1.5-1.7,3.1-3.5,4.6-5.2c1.8-2,3.5-4.2,4.9-6.5c0.9-1.4,1.4-2.9,1.1-4.6
			c-0.2-1-0.7-1.9-1.4-2.7c-1.9-1.9-4.1-3.3-6.6-4.3c-3.6-1.5-7.3-2.8-10.9-4.3c-1.5-0.6-2.9-1.2-4.4-1.9c-5.2-2.3-8.1-6.3-9.1-11.8
			c-0.2-1.3-0.5-2.7-0.7-4c-1.3-6.5-4.4-12.1-8.7-17.1c-2.1-2.4-4.2-4.8-6.3-7.2C461,319,460.2,317.9,459.4,316.8z M515.2,385.2
			c2.4-0.9,4.1-2.3,5.4-4.3c1.2-1.8,2.5-3.5,3.7-5.3c0.4-0.7,1-1.3,1.2-2.1c0.6-2.2,1.2-4.5,1.5-6.8c0.4-2.5-0.5-4.7-2.3-6.5
			c-1.5-1.4-2.9-2.9-4.4-4.4c-1.3-1.4-3-2.2-4.9-2.1c-1,0-2.1,0.1-3.1,0.2c-0.8,0-1.6,0-2.4,0c-0.4-0.5-0.8-0.9-1.2-1.3
			c-1.9-2.1-4.2-2.8-6.9-2.3c-0.9,0.2-1.9,0.4-2.8,0.6c-1.8,0.4-3.6,0.3-5.5-0.4c-0.2-0.9-0.5-1.9-0.7-2.8c-0.2-1.1-1.2-1.4-1.8-2
			c0-0.7,0-1.2-0.1-1.8c-0.4-2.3-1.8-3.9-3.8-4.9c-0.7-0.3-1.4-0.4-2.1-0.1c-0.6,0.3-0.9,0.9-1,1.4c0,2,2,2.3,2.8,3.9
			c-0.1,0.6,0,1.5-0.2,2.3c-0.8,3.1,0.5,5.3,2.9,7c0.7,0.5,1.4,1.1,2,1.7c2.4,2.4,5.4,3.2,8.6,2.2c1.6-0.5,2.9-0.3,4.3,0.5
			c2.7,1.4,5.4,2.7,8.1,4.1c0.8,0.4,1.7,1,2.3,1.6c3.3,3.1,3.3,3.1,4.2,7.8c-1,1.8-0.4,3.8-0.4,5.7c-0.4,0.5-0.7,1-1,1.5
			c-0.8,1.3-1.6,2.6-2.3,3.9C515,383.3,514.7,384.1,515.2,385.2z"/>
		<path d="M563.4,397.7c4.5,3.9,8.9,7.9,13.3,11.8c-0.1,0.3-0.1,0.4-0.2,0.4c-0.1,0.1-0.1,0.1-0.2,0.1c-65.6,0-131.3,0-196.9,0.1
			c-0.4,0-0.8,0-1.1-0.1c-0.1-0.2-0.1-0.2-0.2-0.3c0-0.1,0-0.2,0-0.2c2.7-3.9,5.4-7.9,8.1-11.7C388.3,397.5,559.1,397.4,563.4,397.7
			z"/>
		<path d="M969.1,397.7c2.4,1.9,12.1,10.7,13.2,12.1c-0.1,0.5-0.6,0.4-1,0.4c-0.6,0-1.3,0-1.9,0c-61.8,0-123.7,0-185.5,0
			c-0.9,0-1.7,0-2.6,0c0-0.2,0-0.3,0-0.4c0-0.1,0-0.2,0.1-0.2c4.4-4,8.8-7.9,13.2-11.8C859.5,397.7,914.3,397.7,969.1,397.7z"/>
		<path d="M509.7,644c0.7-0.1,0.9-0.2,1.1-0.2c2.5,0,3.8-1.4,4.5-3.5c0.3-1.1,0.5-2.2,0.6-3.3c0.1-1.5,0.1-3,0.1-4.6
			c0-5.4,0-10.9,0-16.3c0-1.7-0.2-3.5-0.5-5.2c-0.5-3.3-1.6-6.4-4.4-8.5c1.5-1.7,3-1.3,4.7-0.4c0.1-0.4,0.2-0.7,0.2-1
			c0-4.6,0-9.1,0-13.7c0-1.6-0.3-3.2-0.9-4.7c-0.7-1.8-1.9-2.9-4-2.9c-0.2,0-0.5,0-0.7-0.1c-0.1,0-0.1-0.1-0.3-0.2
			c0.7-1.1,1.8-1.7,3-2.2c1.4-0.5,2.8-0.6,4.3-0.4c0.6,0.1,1.1,0.2,1.6,0.4c2.8,1,5.7,0.7,8.5,0.2c3.1-0.5,6.2-0.9,9.3-0.7
			c2,0.1,4,0.4,5.9,0.9c5.1,1.4,8.5,4.7,9.7,9.9c1.3,5.5,0,10.3-4.2,14.2c-1.1,1-2.3,1.7-3.5,2.5c-0.4,0.3-0.9,0.5-1.7,1
			c0.9,0.3,1.6,0.5,2.2,0.7c3.8,1.2,6.7,3.7,8.6,7.2c1.2,2.2,2,4.6,2.3,7c0.6,4.6,0.3,9.1-1.5,13.4c-3.9,9.7-12.4,13.6-21.6,12.7
			c-2.3-0.2-4.6-0.5-6.9-0.7c-3-0.3-5.9,0.2-8.8,0.7c-2.3,0.4-4.5,0.2-6.5-1C510.6,644.7,510.3,644.5,509.7,644z M526.8,637.4
			c2.8,1.1,7.5,1.6,10,1c1.9-0.4,3.5-1.4,4.8-3c1-1.3,1.8-2.7,2.2-4.2c0.4-1.4,0.7-2.8,0.8-4.2c0.4-3.4,0-6.7-1.2-9.9
			c-1-2.8-2.8-5-5.6-6.3c-3.5-1.6-7.2-1.6-10.9-0.9C526.5,611.9,526.5,634.6,526.8,637.4z M526.7,603.7c2.2,0.2,3.4,0.1,5.6-0.6
			c5.2-1.7,8.3-5.2,8.9-10.7c0.4-3.7-1.3-6.6-4.2-8.2c-2.4-1.3-5-1.6-7.7-1.2c-0.9,0.1-1.9,0.3-2.6,1.2
			C526.7,590.6,526.7,597.1,526.7,603.7z"/>
		<path d="M590.9,611.4c4.4,2.2,6.5,5.9,8,10.1c1.2,3.4,1.9,6.9,2.5,10.5c0.4,2.1,0.9,4.2,1.4,6.3c0.2,0.8,0.4,1.5,0.7,2.3
			c0.7,1.8,1.8,3.2,4.2,3.4c-0.5,0.5-0.7,1-1,1.2c-2.4,1.4-4.8,1.5-7.4,0.4c-0.9-0.4-1.7-0.9-2.6-1.4c-0.6,0.4-1.2,0.9-1.9,1.2
			c-2.4,1.3-4.9,1.3-7.3-0.1c-0.4-0.2-0.7-0.6-1.1-1c0.8-0.3,1.3-0.4,1.8-0.6c0.2-0.3,0.5-0.4,0.5-0.6c0.2-0.8,0.6-1.7,0.6-2.5
			c0.1-5.9-0.1-11.8-1.5-17.6c-0.4-1.9-1.1-3.7-1.8-5.4c-0.5-1.3-1.3-2.4-2.6-3.3c-1.9,0.3-3.8,0.5-5.9,0.8
			c-0.1,0.6-0.1,1.1-0.1,1.7c0,6.6,0,13.3,0,19.9c0,1.3,0.2,2.6,0.5,3.8c0.7,2.6,1.9,3.5,4.7,3.6c0.3,0,0.6,0.1,1,0.1
			c-0.4,1.1-1.3,1.5-2.2,1.8c-2.7,0.8-5.2,0.5-7.7-0.8c-0.6-0.3-1.1-0.7-1.7-1c-0.7,0.4-1.3,0.8-2,1.2c-2.9,1.5-5.7,1.4-8.4-0.3
			c-0.2-0.1-0.4-0.3-0.5-0.5c0-0.1,0-0.1-0.1-0.2c0.3-0.6,0.8-0.3,1.2-0.3c1.7-0.2,2.9-1,3.6-2.5c0.5-1.1,0.7-2.3,1-3.4
			c0.1-0.5,0.1-1,0.1-1.4c0-7.4,0.1-14.7,0-22.1c0-1.7-0.3-3.3-0.7-5c-0.6-2.8-1.7-5.3-4.1-7c1.7-1.7,2.5-1.4,4.8-0.5
			c0.1-0.5,0.1-0.9,0.1-1.4c0-4,0.1-8,0-12c0-1.6-0.3-3.2-0.5-4.7c-0.1-0.7-0.4-1.4-0.8-2c-0.7-1.3-1.7-2.1-3.2-2.1
			c-0.5,0-0.9-0.1-1.6-0.1c1.4-1.9,3.3-2.5,5.3-2.7c1-0.1,2.1,0,3.1,0.3c3.3,0.9,6.6,1,9.9,0.2c3.9-0.9,7.8-0.5,11.6,0.4
			c0.7,0.2,1.4,0.4,2.1,0.6c6.1,2.3,9.8,6.6,10,13.8c0.2,7.6-3,13.6-9.3,17.9C592.7,610.3,591.9,610.7,590.9,611.4z M577.6,608.1
			c5.1,0.1,9.4-2.6,11.6-7.2c1.5-3.3,2-6.7,1.5-10.3c-0.1-1.1-0.5-2.2-1-3.2c-2.2-4.3-8-5.9-12.1-3.4
			C577.3,586.2,577.4,605.9,577.6,608.1z"/>
		<path d="M698.8,607.9c-0.2,0.1-0.4,0.1-0.5,0.2c-1.6,2-3.1,4.1-4.7,6.1c0,0.7-0.1,1.3-0.1,1.9c0,6.6,0,13.1,0,19.7
			c0,1.4,0.1,2.9,0.5,4.3c0.7,2.7,1.9,3.6,4.8,3.7c0.2,0,0.5,0.1,0.9,0.1c-0.3,0.4-0.5,0.9-0.8,1.1c-1.8,1.2-3.7,1.3-5.8,1
			c-1.8-0.3-3.5-1.1-5-2.1c-5.1,2.9-8.4,2.9-11.3,0c0.5-0.1,0.8-0.2,1.1-0.2c2-0.1,3.2-1.2,4-2.9c0.3-0.7,0.5-1.4,0.6-2.1
			c0.2-1.5,0.4-3,0.4-4.5c0-6.3,0.1-12.6,0-19c0-1.9-0.3-3.8-0.7-5.7c-0.6-2.9-1.7-5.5-4.3-7.2c1.8-1.5,2.1-1.6,4.9-0.6
			c0-0.5,0.1-0.9,0.1-1.4c0-4.3,0-8.6,0-13c0-1.4-0.2-2.7-0.4-4c-0.1-0.7-0.4-1.4-0.7-2c-0.7-1.5-1.9-2.3-3.6-2.4
			c-0.5,0-0.9,0-1.7,0c0.3-0.5,0.5-0.9,0.7-1.1c1.1-0.9,2.4-1.1,3.8-1.2c1.6-0.1,3.2,0.2,4.7,0.6c0.8,0.2,1.5,0.5,2.3,0.7
			c1.5-0.4,3.1-0.9,4.6-1.2c2.1-0.4,4.1-0.1,6,1.1c0.3,0.2,0.6,0.5,1.1,1c-0.7,0.1-1,0.2-1.4,0.2c-1.9,0.1-3.2,1.1-3.9,2.7
			c-0.4,1-0.7,2.1-0.9,3.2c-0.2,0.9-0.1,1.8-0.1,2.6c0,4.4,0,8.8,0,13.2c0,0.6,0.1,1.2,0.1,2c0.4-0.3,0.6-0.4,0.7-0.5
			c3-3.7,6-7.3,8.9-11c1.3-1.7,2.5-3.5,3.6-5.4c0.6-0.9,1-2,1.3-3.1c0.7-2.2,0-3.2-2.3-3.8c-0.2,0-0.3-0.1-0.6-0.2
			c0.3-0.4,0.6-0.8,1-1c1.6-1.1,3.4-1.3,5.3-0.9c1.3,0.3,2.6,0.7,4,1.1c3.2-1,6.4-2.5,9.8,0.3c-0.4,0.3-0.7,0.6-1,0.7
			c-1.8,0.8-3.3,2-4.7,3.3c-4.1,3.8-7.7,8.1-11.1,12.6c-0.7,0.9-1.4,1.9-2.1,2.9c0.2,0.6,0.3,1.2,0.5,1.7
			c3.7,10.6,7.5,21.3,11.2,31.9c0.7,2,1.6,4,2.5,6c0.6,1.2,1.3,2.4,2,3.5c1.2,1.8,2.7,3.2,5.4,2.9c-0.3,0.5-0.5,0.8-0.7,1
			c-1.5,1.2-3.3,1.5-5.2,1.3c-2.2-0.3-4.2-0.9-6.1-2.2c-0.6,0.3-1.1,0.6-1.7,0.8c-1.3,0.5-2.7,1-4.1,1.3c-1.9,0.4-3.8,0-5.5-1.1
			c-0.2-0.1-0.4-0.3-0.5-0.5c-0.1-0.1-0.1-0.3-0.2-0.5c0.7-0.1,1.4-0.2,2-0.3c1.1-0.7,1.5-1.7,1.5-2.7c0-1.3,0-2.6-0.3-3.8
			c-1.5-5.7-3-11.4-4.6-17.1c-1-3.5-2.1-7-3.2-10.6C699.2,608.9,698.9,608.4,698.8,607.9z"/>
		<path d="M889.5,167.4c0.6-0.7,1.2-0.7,1.8-0.5c1.9,0.4,3.7,1.2,5.2,2.4c4.1,3.3,6.8,7.6,8.2,12.7c0.8,3.2,0.3,6.4-1.6,9.2
			c-1.1,1.6-2.4,3.2-3.7,4.7c-1.4,1.7-2.9,3.4-3.9,5.4c-0.8,1.5-1.2,3.1-0.9,4.9c0.3,1.8,1.3,3.1,2.8,4c0.5,0.3,1,0.5,1.5,0.7
			c1.7,0.7,3.1,1.6,4.4,2.9c2.3,2.3,4.5,4.6,6.7,6.9c0.5,0.5,0.9,1.1,1.4,1.6c1.8,2.1,2.3,4.5,2,7.2c-0.7,5.4-2.7,10.4-6,14.7
			c-2.8,3.7-5.8,7.3-8.7,10.9c-0.7,0.9-1.5,1.6-2.3,2.4c-0.7,0.7-1.4,1.3-2.2,1.9c-0.3-0.1-0.5-0.2-0.8-0.4c0.4-1.6,1.8-2.6,2.6-3.9
			c0.8-1.3,1.4-2.7,2.1-4c-0.2-0.6-0.4-1.1-0.6-1.7c-0.6-1.6-0.3-3.2,0.7-4.5c0.5-0.7,1-1.2,1.5-1.9c1-1.4,1.7-2.9,1.8-4.6
			c0.1-2-0.6-3.6-2.1-4.9c-0.9-0.8-1.8-1.5-2.6-2.5c-0.8-1.1-1.9-1.7-3.2-2c-0.6-0.1-1.3-0.2-1.9-0.4c-2.5-0.6-4.6-1.8-6.2-3.9
			c-0.8-1-1.5-2.1-2.3-3.1c-1-0.5-2-1-2.9-1.4c-1-1.8,0.4-3.4-0.1-5.2c-1-1.5-2.9-1.5-4.3-2.4c-0.3-1.9,0.2-3.9-0.1-6
			c-1.1,1-2.1,2-2.4,3.3c-0.5,1.7-1.4,3.2-2.2,4.8c-0.6,1.1-0.9,2.4-0.7,3.7c0.2,1.8,1,3.2,3,3.5c0.3,0.1,0.6,0.2,1,0.3
			c0.3,0.5,0.6,1.1,1,1.6c0.7,1.2,1.8,1.8,3.2,1.9c0.6,0,1.1,0,1.7,0c1.5,0,2.9,0.5,3.8,1.7c1.1,1.5,2.5,1.9,4.3,2.2
			c2.1,0.3,4.1,1.2,6.2,1.8c0.3,0.1,0.5,0.4,0.8,0.7c-1.4,0.9-2.8,1-4.2,1.2c-3.2,0.5-6-0.3-8.1-3c-0.2-0.2-0.5-0.4-0.9-0.8
			c-0.6,0-1.4-0.1-2.2,0c-1.4,0.1-2.7-0.2-3.9-0.9c-1.2-0.7-2.3-1.4-3.5-2.2c-2.2-1.5-3.5-3.6-4.2-6.2c-0.9-3.8-0.4-7.3,1.5-10.7
			c0.3-0.6,0.7-1.2,1.1-1.9c0.9-1.8,1.5-3.7,1.5-5.7c0-1.1,0-2.2,0.1-3.4c0.3-3.3,2-5.7,4.5-7.6c1-0.7,2-1.3,3.1-1.8
			c1.7-0.8,3.3-1.7,4.6-3c1-0.9,2.1-1.4,3.3-1.8c1.3-0.5,2.7-1.1,3.9-1.8c3.3-2.1,3.9-4.3,1.9-7.7c-0.5-1-1.2-1.9-1.9-2.8
			c-0.5-0.8-1.1-1.5-1.7-2.3C890.1,169.1,889.6,168.3,889.5,167.4z M898.9,189.4c-0.6,0.8-1.2,1.6-1.8,2.4c-0.9,1-1.7,2.1-2.1,3.4
			c-0.1,0.2,0,0.4,0,0.7c0.9-0.9,1.7-1.8,2.6-2.5c1-0.8,2.1-1.4,3.2-2.2c-0.1-1.9,1.8-2.6,2.4-4.1c-0.1-0.9-0.3-1.8-0.4-2.7
			c-0.2-1,0.1-2-0.5-3.5c-0.3,1.2-0.4,2-0.6,2.7c-0.2,0.8-0.6,1.5-1.3,2c-0.6,0.5-1.4,0.7-1.8,1.7
			C898.7,187.8,898.8,188.5,898.9,189.4z"/>
		<path d="M658.8,540.2c1.6-1.4,3.2-1,4.8-0.6c0.2-0.4,0.4-0.8,0.4-1.1c1.4-6.6,5.5-11,11.6-13.7c0.6-0.3,1.3-0.4,2-1.1
			c-0.5-0.2-0.8-0.4-1.2-0.5c-5-2-9-8.5-6.2-15.5c2.1-5.2,6.1-8.1,11.3-9.4c4.4-1,8.7-0.3,12.9,1.5c0.9,0.4,1.7,0.9,2.6,1.3
			c2.7,1.4,3.2,1.5,6.3,1.2c0.4,1.2-0.2,2.1-0.7,3.1c-0.9,1.4-2.2,2.1-3.9,2.1c-0.3,1.9-0.6,3.9-2.6,4.8c-1.3,0.6-2.7,1.1-4.2,0.3
			c0.1-0.6,0.2-1.1,0.2-1.6c0.1-2.9-1.9-5.7-4.5-6.3c-2.9-0.7-5.8-0.1-7.5,2.9c-1.4,2.4-1.6,5-0.8,7.6c0.5,1.4,1.4,2.5,2.7,3.3
			c1.8,1.1,3.7,1.5,5.8,1.2c2-0.2,3.8-0.9,4.5-2.9c1-0.1,1.4,0.4,1.8,1.1c0.4,0.6,0.5,1.3,0.3,2.1c-0.2,1-0.7,1.8-1.4,2.5
			c-1.1,1.1-2.4,1.9-3.8,2.4c-1.2,0.5-2.4,0.9-3.6,1.4c-1.5,0.7-2.9,1.3-4.3,2.1c-3,1.8-4.9,4.5-5.8,7.9c-0.7,2.7-0.9,5.4-0.6,8.1
			c1,8.3,8.8,11.5,15.3,8.8c2.1-0.9,3.6-2.4,4.4-4.5c0.4-1.2,0.7-2.5,0.8-3.7c0.2-2.6-1.1-3.9-3.8-4.6c-2.2,0.5-2.2,0.5-4.1,2.3
			c-1.9-0.7-2.7-2.3-2.8-4.3c-0.1-2,0.6-3.8,2.3-5c1.2-0.9,2.6-1.6,3.9-2.3c1.6-0.7,3.3-1.3,4.9-1.9c1-0.4,2.1-0.9,3-1.4
			c2.6-1.4,4-3.4,3.6-6.4c0-0.3,0-0.6,0-0.9c3.4-0.4,6.6,2.2,6.7,5.4c0.1,3.1-1.3,5.6-3.5,7.6c-0.5,0.5-1.1,0.9-1.8,1.4
			c0.1,0.3,0.2,0.6,0.3,0.8c2.7,4.9,2.7,9.9,0.8,15.1c-2.6,7-9.6,13.5-20.1,13.1c-1.6-0.1-3.2-0.3-4.8-0.6
			c-4.7-0.9-8.4-3.3-11.5-6.9c-1.7-2-3.1-4.3-4.3-6.6c-0.8-1.6-1.5-3.2-2.3-4.8C661.2,543.3,660.4,541.6,658.8,540.2z"/>
		<path d="M668,578.3c0.4-0.6,0.7-1.1,1-1.7c0.2,0,0.4-0.1,0.5,0c2.2,1.8,2.5,4.4,0.9,6.5c-0.4,0.5-0.9,0.9-1.3,1.3
			c0.4,5.7-0.9,7.7-5.7,8.8c0-0.5-0.1-0.9-0.1-1.3c0-1,0.1-1.9,0-2.9c-0.1-0.8-0.3-1.6-0.6-2.3c-2.2-5-10.3-5.3-13.1-1.1
			c-1.5,2.3-1.7,4.6-0.2,7c0.5,0.9,1.2,1.7,2,2.4c1.2,1.1,2.4,2.1,3.7,3.1c2.7,2,5.1,4.3,7.4,6.8c1,1.1,1.9,2.1,2.9,3.2
			c2.9,3,5.6,6.1,9.7,7.8c-0.6,2-2.3,2.3-4,2.9c0.2,0.8,0.5,1.4,0.6,2.1c1.9,7,0.8,13.5-3.8,19.2c-3.9,4.9-9.1,7.4-15.4,7.6
			c-3.1,0.1-6.1-0.2-8.9-1.5c-6.4-2.8-9.8-7.7-10.2-14.7c-0.2-3.4,0.4-6.5,2.2-9.4c1.5-2.4,3.5-4.1,6.3-4.9c1.7-0.5,3.5-0.6,5.2-0.3
			c1.9,0.3,3.4,1.4,4.5,2.9c1.6,2.2,1.5,4.5-0.3,6.9c-0.2-0.1-0.4-0.1-0.6-0.2c-1.3-1.2-2.9-1.3-4.5-0.8c-1.8,0.6-3.1,1.8-3.5,3.7
			c-1.3,5.6,1.9,11.2,8.2,11.5c6.7,0.3,10.5-4.3,11.3-9.8c0.5-3.1,0.1-6.1-1.1-8.9c-0.8-1.7-1.7-3.5-2.7-5.1
			c-3-4.6-6.9-8.3-11.6-11.2c-2.5-1.6-5.2-2.8-8.2-3.2c-0.5-0.1-1.1-0.3-1.6-0.4c0.9-1.8,1-2,3.6-3.1c-0.2-0.4-0.3-0.9-0.5-1.3
			c-4.1-8.1-0.2-20.8,13-21.9c3.6-0.3,7.2,0.1,10.5,1.7C665.9,578.7,665.9,578.7,668,578.3z"/>
		<path d="M858,616c-0.7,2.1-2.4,2.3-4,2.9c0.2,0.8,0.5,1.4,0.6,2.1c1.4,5.2,1.2,10.3-1.2,15.2c-3.8,7.4-9.9,11.3-18.2,11.6
			c-2.9,0.1-5.7-0.3-8.4-1.4c-6.5-2.8-10-7.7-10.4-14.8c-0.2-2.8,0.2-5.4,1.4-7.9c0.8-1.6,1.8-3,3.1-4.2c2.7-2.3,5.8-3,9.2-2.4
			c1.9,0.3,3.4,1.4,4.5,3c1.6,2.3,1.5,4.5-0.3,6.9c-0.2-0.1-0.4-0.1-0.6-0.2c-1.3-1.2-2.9-1.3-4.5-0.8c-1.8,0.6-3.1,1.8-3.5,3.7
			c-1.3,5.6,1.9,11.2,8.3,11.5c6.7,0.3,10.5-4.3,11.3-9.8c0.5-3.2,0-6.2-1.2-9.2c-1.1-2.5-2.5-4.8-4.1-7c-2.8-3.6-6.1-6.6-9.9-9
			c-2.6-1.6-5.4-2.9-8.4-3.3c-0.5-0.1-0.9-0.2-1.4-0.3c-0.1,0-0.1-0.1-0.2-0.2c0.5-1.7,2.1-2.3,3.7-2.9c-0.2-0.5-0.3-0.9-0.6-1.3
			c-4.1-8.2-0.1-20.8,13-21.9c3.6-0.3,7.2,0.1,10.5,1.7c1.3,0.6,2.6,1.2,4.3,0.5c0.3-0.5,0.7-1.1,1.2-1.8c0.8,0.2,1.3,0.8,1.7,1.5
			c0.5,0.9,0.7,1.8,0.5,2.8c-0.2,1-0.5,1.9-1.2,2.6c-0.4,0.4-0.9,0.7-1.1,0.8c0.4,6-0.9,8-5.6,9.1c0-0.5-0.1-0.9-0.1-1.3
			c0-1,0.1-1.9,0-2.9c-0.1-0.8-0.3-1.6-0.6-2.3c-2.3-5-10.4-5.2-13.1-1.1c-1.5,2.3-1.7,4.6-0.2,7c0.6,0.9,1.2,1.7,2,2.4
			c1.2,1.1,2.4,2.1,3.7,3.1c2.7,2,5.1,4.3,7.4,6.8c0.9,1,1.8,2,2.8,3C851,611.1,853.8,614.3,858,616z"/>
		<path d="M759.1,612.1c-1.4-2.5-2.4-2.9-4.9-2.5c-2.1,0.3-3.7,1.4-4.8,3.2c-0.6,1.1-1.2,2.3-1.5,3.5c-0.5,1.7-0.8,3.4-1,5.2
			c-0.4,5-0.5,10.1-0.3,15.1c0,0.3,0.1,0.6,0.2,1c0.6,0.1,1.1,0.3,1.6,0.3c3.7,0,7.4,0.1,11-0.4c0.9-0.1,1.7-0.3,2.6-0.5
			c2.9-0.8,5.6-2,7.1-4.8c1.2,1.4,1.5,2.7,1,4.5c-0.2,0.8-0.6,1.7-1,2.4c-0.7,1.2-0.9,2.5-0.7,3.9c0.2,1.1,0.2,2.2-0.6,3.3
			c-0.4-0.1-0.8-0.2-1.1-0.2c-1.9-0.3-3.8-0.8-5.7-0.8c-5.8-0.1-11.5-0.1-17.3,0c-2.2,0-4.5,0.4-6.7,0.7c-2.1,0.3-4.2,0.1-6-1
			c-0.4-0.2-0.7-0.6-1.3-1.1c0.8-0.1,1.2-0.2,1.7-0.2c1.6-0.2,2.7-1,3.4-2.4c0.4-0.8,0.7-1.8,0.9-2.7c0.2-1.4,0.4-2.9,0.4-4.3
			c0-6.1,0-12.2,0-18.2c0-2.7-0.4-5.4-1.2-8c-0.7-2.2-1.7-4.3-3.8-5.7c1.4-1.6,2-1.7,4.6-0.7c0.5-0.3,0.3-0.8,0.3-1.2
			c0-3.8,0-7.7,0-11.5c0-1.5-0.2-3-0.4-4.5c-0.1-0.7-0.3-1.4-0.6-2.1c-0.7-1.7-1.9-2.9-4-2.9c-0.3,0-0.6-0.1-1.1-0.1
			c0.3-0.4,0.5-0.8,0.8-1c2.1-1.6,4.5-2,7-1.6c1.6,0.3,3.1,0.6,4.7,0.8c1.4,0.2,2.9,0.3,4.3,0.4c3.3,0.1,6.6,0.1,9.8,0.1
			c3.5,0,7,0,10.4-1.2c0.7,0.6,0.8,1.3,0.7,2c-0.1,0.4-0.1,0.8-0.3,1.2c-0.8,1.6-0.6,3.2,0.1,4.9c1.1,2.3,0.2,4.3-1.2,6.4
			c-0.3-0.3-0.5-0.5-0.6-0.7c-1.4-2.8-4-4.1-6.9-4.7c-3.9-0.8-7.8-0.4-11.7,0.2c-0.1,0-0.1,0.1-0.2,0.1c-0.4,1.8-0.6,13.2-0.3,20.3
			c0,0.4,0.1,0.7,0.3,1.4c0.6-0.9,1-1.5,1.4-2c1.9-2.7,4.4-4.3,7.7-4.9c1.1-0.2,2.1-0.1,3.1,0.1c3.2,0.6,5.1,3.4,3.9,7.1
			C762.3,610,761.1,611.3,759.1,612.1z"/>
		<path d="M699,414.3c-2.5-1.8-5.2-3.1-6.9-5.6c0.4-4.8,6.4-16.5,11.1-21.6c0.9-0.3,1.7,0,2.5,0.3c2.5,0.8,5,1.6,7.5,2.5
			c13.6,5.1,27.1,10.2,40.4,15.9c6.2,2.7,12.2,5.7,18.3,8.5c0.9,0.4,1.7,0.9,2.5,1.4c0.3,0.2,0.5,0.5,1,1.1
			c-0.8-0.1-1.1-0.2-1.5-0.3c-6.3-2-12.7-3.3-19.2-3.9c-3.5-0.3-7-0.2-10.5-0.2c-3.8,0-7.5,0.7-11.2,1.1c-1.8,0.2-3.6,0.6-5.5,0.6
			c-2.1,0-4.3-0.3-6.4-0.6c-2.5-0.3-5-0.8-7.6-1.1c-3.9-0.4-7.7,0-11.4,1.1C701.1,413.8,700.1,414,699,414.3z"/>
		<path d="M424.4,390.3c0.1,0.4,0.2,0.8,0.4,1.3c-0.9,0-1.6,0.1-2.3,0.1c-0.9,0-1.7,0-2.6-0.1c-1.4-1.7-1.7-3.7-1.9-5.7
			c-0.3-2.8,0.3-5.4,1.6-7.9c0.4-0.7,0.8-1.4,1.2-2.1c1.1-1.9,1.7-4,1.6-6.2c0-1,0-2.1,0.1-3.1c0.3-3.3,2-5.8,4.7-7.7
			c1-0.7,2.1-1.2,3.1-1.8c1.2-0.7,2.6-1.3,3.7-2.2c1.5-1.2,3-2.1,4.8-2.7c1.5-0.5,2.9-1.3,4.2-2.3c2.2-1.8,2.7-3.5,1.4-6.1
			c-0.7-1.4-1.6-2.6-2.4-3.9c-0.7-1.1-1.5-2.1-2.2-3.2c-0.3-0.5-0.4-1-0.6-1.5c0.5-0.8,1.1-0.7,1.7-0.6c2.6,0.5,4.8,1.8,6.6,3.6
			c2.7,2.6,4.6,5.7,6,9.1c1.8,4.5,1.4,8.8-1.6,12.7c-1,1.3-2.1,2.6-3.2,3.9c-1.1,1.5-2.2,2.9-3.3,4.4c-0.7,1.1-1.2,2.3-1.3,3.6
			c-0.3,2.5,0.5,4.6,2.7,5.9c0.5,0.3,1.1,0.6,1.7,0.8c1.5,0.6,2.9,1.5,4,2.6c2.5,2.5,4.9,5,7.4,7.5c0.6,0.7,1.3,1.4,1.6,2.4
			c-0.4,0.1-0.6,0.2-0.8,0.2c-8.7,0-17.4,0-26.2,0c-0.6-0.7-1.3-1.4-1.9-2.2c-0.9-0.4-1.8-0.9-2.7-1.3c-1.1-1.8,0.4-3.4-0.1-5.2
			c-0.9-1.4-2.8-1.4-4.2-2.4c-0.4-1.9,0.2-3.9-0.1-6c-1.3,0.9-1.9,2.1-2.4,3.3c-0.6,1.7-1.5,3.4-2.3,5c-0.6,1.2-0.8,2.6-0.6,4
			c0.3,1.6,1.1,2.8,2.8,3.1C423.5,390,423.8,390.2,424.4,390.3z M444.9,363.9c0.8-0.8,1.6-1.7,2.5-2.4c1-0.8,2.1-1.4,3.2-2.2
			c0.1-1.8,1.8-2.6,2.5-4.1c-0.2-1.9-0.4-3.8-0.7-5.7c0,0-0.3-0.1-0.3-0.1c-0.3,1.1-0.5,2.2-1,3.1c-0.6,1-1.7,1.6-2.5,2.5
			c0.1,0.8,0.2,1.5,0.3,2.4c-0.6,0.7-1.2,1.5-1.8,2.4c-0.6,0.8-1.2,1.7-1.8,2.6C444.9,362.8,444.4,363.3,444.9,363.9z"/>
		<path d="M815.1,575.9c1.5,2,0.7,3.9,0,5.9c0.3,1,0.8,2.1,1,3.2c0.5,2.5-0.6,4.7-3,5.9c-0.1-0.3-0.1-0.6-0.2-0.9
			c-0.4-2.7-2-4.3-4.5-5.1c-2.8-0.9-5.5-0.5-8.3,0.2c-0.1,0.8-0.1,1.4-0.1,2c0,16.3,0,32.6,0,48.9c0,1.3,0.1,2.7,0.5,4
			c0.7,2.7,1.9,3.6,4.8,3.7c0.2,0,0.5,0,0.7,0.1c0.4,0.7-0.2,0.9-0.5,1.1c-1.8,1.2-3.9,1.5-6,0.9c-1.6-0.4-3.1-1.2-4.9-1.9
			c-0.6,0.3-1.4,0.8-2.2,1.2c-2.7,1.3-5.4,1.4-8-0.2c-0.4-0.2-0.6-0.6-1.1-1.1c0.6-0.1,0.9-0.2,1.2-0.2c2.2-0.1,3.6-1.3,4.2-3.3
			c0.5-1.6,0.8-3.3,0.8-4.9c0.1-7.1,0.1-14.2,0-21.3c0-1.8-0.4-3.7-0.9-5.4c-0.7-2.5-1.8-4.8-4-6.3c1.5-1.6,2.1-1.7,4.6-0.7
			c0.1,0,0.2,0,0.2-0.1c0-0.1,0.1-0.1,0.1-0.2c0-5.2,0-10.4,0-15.6c0-0.2-0.1-0.5-0.2-0.8c-2.9-0.6-5.8-1-8.7-0.1
			c-2.2,0.7-3.7,2.2-4.2,4.5c0,0.2-0.1,0.5-0.1,0.7c-0.1,0.2-0.2,0.4-0.2,0.7c-3.1-1.9-3.6-4.6-1.8-8.8c-0.5-2-1.6-4,0-6.1
			c0.9,0.5,1.6,1,2.5,1.4c0.8,0.3,1.7,0.4,2.6,0.5c1,0.1,1.9,0.2,2.9,0.2c7.3,0,14.6-0.1,21.8-0.1c1.4,0,2.9,0.1,4.3,0.1
			C811.6,577.8,812.5,577.5,815.1,575.9z"/>
		<path d="M609.7,643.9c0.5-0.1,0.8-0.1,1.2-0.1c2.2,0,3.5-1.3,4.3-3.3c0.3-1,0.5-2,0.7-3c0.1-0.9,0.1-1.9,0.1-2.9
			c0-6.6,0-13.1,0-19.7c0-1.8-0.1-3.5-0.6-5.2c-0.7-2.8-1.7-5.5-4.3-7.3c1.1-1.7,2.2-1.6,4.7-0.7c0-0.5,0.1-1,0.1-1.4
			c0-4.6,0-9.1,0-13.7c0-1.3-0.3-2.7-0.5-4c-0.1-0.6-0.4-1.2-0.7-1.8c-0.7-1.2-1.7-1.9-3.1-2c-0.6,0-1.1,0-1.9,0
			c0.2-0.5,0.3-0.9,0.5-1.1c0.9-0.8,2.1-1.2,3.3-1.3c1.6-0.1,3.2-0.1,4.8,0.4c1,0.3,2,0.6,3.1,0.9c1.1-0.3,2.2-0.7,3.3-1
			c2.4-0.5,4.8-0.6,7,0.8c0.3,0.2,0.5,0.4,0.7,0.6c0.1,0.1,0.1,0.3,0.1,0.6c-0.4,0-0.7,0.1-1.1,0.1c-1.9,0.1-3.1,1.2-3.8,2.8
			c-0.7,1.5-0.9,3.1-1,4.7c0,0.6,0,1.3,0,1.9c0,15.6,0,31.2,0,46.8c0,1.4,0.2,2.9,0.4,4.3c0.1,0.7,0.3,1.4,0.7,2
			c0.7,1.5,1.9,2.4,3.6,2.4c0.5,0,0.9,0,1.4,0c0.4,0.6,0,0.8-0.3,1.1c-1.8,1.3-3.8,1.6-5.9,1.1c-1.2-0.3-2.3-0.8-3.4-1.2
			c-0.6-0.2-1.1-0.6-1.8-0.9c-1.1,0.5-2.3,1.1-3.4,1.6c-2.5,1.2-4.8,0.8-7.1-0.6C610.3,644.7,610.1,644.3,609.7,643.9z"/>
		<path d="M668.4,414.9c-0.5-0.1-1.1-0.1-1.4-0.3c-2.2-2-4.8-3.1-7.6-4c-0.1,0-0.2-0.2-0.4-0.4c0.2-0.2,0.5-0.4,0.7-0.5
			c3.2-1.7,5.7-4.1,7.8-6.9c2.9-3.8,5.8-7.7,8.4-11.7c2.7-4.1,5.1-8.3,7.6-12.5c0.2-0.3,0.4-0.6,0.6-0.9c2,0.6,15.3,6.8,16.8,7.8
			c-1.7,2.6-3.5,5.1-5.1,7.7c-1.5,2.6-2.8,5.4-4.3,8.1c-0.5-0.1-0.9-0.1-1.4-0.2c-4.3-1-8.2-0.2-12,2c-4.2,2.5-7.2,6-9.3,10.4
			C668.9,414,668.7,414.4,668.4,414.9z"/>
		<path d="M494.8,284.5c-2.4-1.1-4.9-2.2-7.3-3.3c-0.2-1.2,0.4-1.8,0.8-2.6c2-3.6,4.9-6.5,8.5-8.6c3.9-2.4,8-4.7,12-7
			c0.9-0.5,1.9-0.9,3.1-0.8c0.2,0.5,0.5,1,0.6,1.6c0.8,4-0.6,7.2-3.6,9.9c-1.3,1.2-2.7,2.2-4.1,3.3c-3.1,2.4-6.2,4.8-9.3,7.1
			C495.4,284.2,495.3,284.3,494.8,284.5z"/>
		<path d="M688.5,413.6c-5.2,2.8-10.3,5.3-15.5,8c-0.4-0.5-0.8-0.9-1.1-1.3c0.1-0.3,0.1-0.5,0.2-0.6c1.1-0.9,1.8-2,2.3-3.3
			c1.7-4,4.6-7,8.6-8.9c0.8-0.4,1.7-0.8,2.8-0.6C686.1,409.3,686.4,411.7,688.5,413.6z"/>
		<path d="M459.5,52.9c1.9-1.9,4.2-2.3,6.7-1.4c1,0.7,1.4,1.7,1.3,2.7c-0.3,2.2,0.7,3.8,2.2,5.3c1.8,1.7,3.4,3.6,5.1,5.4
			c0.8,0.9,1.1,1.8,0.7,3.1c-2-1-3.7-2.1-5.3-3.4c-3-2.3-5.9-4.6-8.8-6.9C459.6,56.4,459.3,55.4,459.5,52.9z"/>
		<path d="M647.3,412.4c-4.9,0-9.3,0.8-13.4,1.7c-3.4-0.7-6.6-1.3-9.9-2c0,0.1,0,0,0-0.1c0-0.1,0.1-0.2,0.1-0.2
			c0.6-0.3,1.3-0.7,1.9-0.9c3.4-1.5,6.9-3,10.1-4.5C638.6,407.3,645.4,410.9,647.3,412.4z"/>
		<path d="M855.8,316.8c0.5-0.7,0.9-1.2,1.2-1.6c5.5-0.9,11-2,16.7-2.7c-0.2,0.3-0.2,0.5-0.3,0.6c-4.6,2-9.3,3.3-14.2,4
			c-0.5,0.1-1,0.2-1.4,0.1C857.2,317.2,856.6,317,855.8,316.8z"/>
		<path d="M620.3,178c-0.7-3.1-1.1-6,0.1-8.9c1.3-1.3,2.9-1.7,4.6-1.9c4.4-0.6,8.7-1.3,13.1-1.7c11.6-1.2,23-0.6,34.2,2.8
			c3,0.9,6.2,1.5,9.4,2c3.2,0.5,6.4,0.2,9.5-0.7c3.1-0.9,6.1-1.9,9.2-2.6c6.6-1.6,13.2-2.1,20-2c7.4,0.2,14.7,1.2,21.9,2.2
			c1.5,0.2,2.9,0.8,4.5,1.2c1.5,3.1,1.3,6.2,0.4,9.5c-1.9,1-2.7,2.9-3.1,5c-0.7,3.4-1.6,6.7-2.4,10c-0.5,1.8-1.4,3.4-2.3,5
			c-2.2,3.6-5.5,5.6-9.6,6.1c-7.4,1-14.8,1.4-22.2,0.5c-1.3-0.2-2.5-0.5-3.7-0.9c-3.8-1.1-6.6-3.4-8.4-7c-1.9-4-3.8-7.9-5.7-11.9
			c-0.1-0.1-0.1-0.3-0.2-0.4c-1.7-4-3.2-4.3-6.9-4.1c-1.7,0.1-3,0.9-3.9,2.4c-0.3,0.6-0.7,1.3-0.9,1.9c-1.2,2.8-2.4,5.6-3.6,8.4
			c-0.2,0.4-0.3,0.7-0.5,1.1c-2.6,6.2-7.4,9.6-14,10.7c-4.2,0.6-8.5,0.5-12.7,0.3c-2.7-0.1-5.4-0.5-8.1-0.7c-0.4,0-0.8-0.1-1.2-0.1
			c-5.7-0.9-9.7-4-11.4-9.7c-0.9-2.8-1.6-5.7-2.3-8.6c-0.2-0.9-0.5-1.9-0.6-2.8C622.9,180.9,622.3,178.9,620.3,178z M720.1,200.7
			c2.1-0.1,4.5-0.2,6.8-0.4c3.9-0.4,6.9-2.2,8.9-5.7c0.5-0.8,0.9-1.7,1.2-2.6c1.6-4.5,2.5-9.1,2.8-13.8c0.2-2.9-1-5.1-3.5-6.6
			c-1.5-1-3.1-1.5-4.9-2c-3-0.7-6-1-9-1.2c-5-0.4-9.9-0.3-14.8,0.5c-1.9,0.3-3.8,0.5-5.6,1.1c-1.8,0.6-3.6,1.4-5.2,2.4
			c-2.4,1.4-3.4,3.5-2.7,6.3c0.2,0.9,0.4,1.9,0.7,2.8c1.4,3.9,3.1,7.7,5,11.4c2.3,4.3,5.8,6.6,10.5,7.4
			C713.6,200.8,716.7,200.7,720.1,200.7z M673.2,178.1c-0.4-2.2-1.9-3.7-3.8-4.9c-1.2-0.7-2.4-1.3-3.7-1.7c-2.5-0.7-5-1.2-7.5-1.7
			c-6.3-1.1-12.7-1.5-19.1-1.2c-2.6,0.1-5.3,0.5-7.7,1.7c-2.4,1.2-3.8,3.1-3.7,5.9c0.1,1,0.1,1.9,0.2,2.9c0.5,4.9,2,9.5,3.4,14.2
			c1,3.4,3.2,5.4,6.7,6.1c0.7,0.1,1.4,0.3,2.1,0.4c5,0.6,10,0.7,15.1,0.6c5-0.1,9.2-2.1,11.9-6.5c1.4-2.2,2.6-4.6,3.8-6.9
			C672.2,184.2,673.1,181.3,673.2,178.1z"/>
		<path d="M668.1,313.5c-0.1-0.1-0.1-0.1-0.2-0.2c0,0,0.1,0,0.1,0C668.1,313.5,668.1,313.5,668.1,313.5L668.1,313.5z"/>
		<path d="M677.2,102.4c0.1,0,0.1,0,0.2,0C677.3,102.4,677.3,102.4,677.2,102.4L677.2,102.4z"/>
		<path d="M506.7,236.4c-0.3,0.3-0.6,0.6-0.9,1C505.7,236.7,505.7,236.7,506.7,236.4z"/>
		<polygon points="489.1,183.5 489,183.6 489.1,183.6 		"/>
		<polygon points="489.1,183.6 489.1,183.4 489.1,183.5 		"/>
	</g>
</g>
</svg>
